G75*
G70*
%OFA0B0*%
%FSLAX24Y24*%
%IPPOS*%
%LPD*%
%AMOC8*
5,1,8,0,0,1.08239X$1,22.5*
%
%ADD10C,0.0000*%
%ADD11C,0.0030*%
%ADD12C,0.0050*%
D10*
X000181Y000181D02*
X019866Y000181D01*
X019866Y019866D01*
X000181Y019866D01*
X000181Y000181D01*
D11*
X001486Y001043D02*
X001583Y000946D01*
X001680Y001043D01*
X001680Y001237D01*
X001781Y001188D02*
X001781Y001140D01*
X001829Y001092D01*
X001781Y001043D01*
X001781Y000995D01*
X001829Y000946D01*
X001926Y000946D01*
X001974Y000995D01*
X002073Y000995D02*
X002073Y000946D01*
X002122Y000946D01*
X002122Y000995D01*
X002073Y000995D01*
X002223Y000995D02*
X002223Y001043D01*
X002271Y001092D01*
X002320Y001092D01*
X002271Y001092D02*
X002223Y001140D01*
X002223Y001188D01*
X002271Y001237D01*
X002368Y001237D01*
X002416Y001188D01*
X002416Y000995D02*
X002368Y000946D01*
X002271Y000946D01*
X002223Y000995D01*
X001974Y001188D02*
X001926Y001237D01*
X001829Y001237D01*
X001781Y001188D01*
X001829Y001092D02*
X001878Y001092D01*
X001486Y001043D02*
X001486Y001237D01*
X001682Y001946D02*
X001634Y001995D01*
X001634Y002188D01*
X001682Y002237D01*
X001827Y002237D01*
X001827Y001946D01*
X001682Y001946D01*
X001928Y001946D02*
X001928Y002237D01*
X002122Y002237D02*
X001928Y001946D01*
X002122Y001946D02*
X002122Y002237D01*
X002223Y002188D02*
X002271Y002237D01*
X002368Y002237D01*
X002416Y002188D01*
X002416Y001995D01*
X002368Y001946D01*
X002271Y001946D01*
X002223Y001995D01*
X002223Y002092D01*
X002320Y002092D01*
X002271Y002946D02*
X002416Y002946D01*
X002416Y003237D01*
X002271Y003237D01*
X002223Y003188D01*
X002223Y003140D01*
X002271Y003092D01*
X002416Y003092D01*
X002271Y003092D02*
X002223Y003043D01*
X002223Y002995D01*
X002271Y002946D01*
X002122Y002995D02*
X002073Y002946D01*
X001977Y002946D01*
X001928Y002995D01*
X001928Y003092D01*
X001977Y003140D01*
X002025Y003140D01*
X002122Y003092D01*
X002122Y003237D01*
X001928Y003237D01*
X001977Y003946D02*
X001977Y004237D01*
X002122Y004092D01*
X001928Y004092D01*
X002223Y004092D02*
X002416Y004092D01*
X002416Y004140D02*
X002320Y004237D01*
X002223Y004140D01*
X002223Y003946D01*
X002416Y003946D02*
X002416Y004140D01*
X002416Y005946D02*
X002271Y005946D01*
X002223Y005995D01*
X002223Y006043D01*
X002271Y006092D01*
X002416Y006092D01*
X002416Y006237D02*
X002271Y006237D01*
X002223Y006188D01*
X002223Y006140D01*
X002271Y006092D01*
X002122Y006092D02*
X001928Y006092D01*
X001977Y006237D02*
X001977Y005946D01*
X002122Y006092D02*
X001977Y006237D01*
X002416Y006237D02*
X002416Y005946D01*
X002416Y006946D02*
X002271Y006946D01*
X002223Y006995D01*
X002223Y007043D01*
X002271Y007092D01*
X002416Y007092D01*
X002416Y007237D02*
X002271Y007237D01*
X002223Y007188D01*
X002223Y007140D01*
X002271Y007092D01*
X002122Y007188D02*
X002073Y007237D01*
X001977Y007237D01*
X001928Y007188D01*
X001928Y007140D01*
X001977Y007092D01*
X001928Y007043D01*
X001928Y006995D01*
X001977Y006946D01*
X002073Y006946D01*
X002122Y006995D01*
X002025Y007092D02*
X001977Y007092D01*
X002416Y006946D02*
X002416Y007237D01*
X002416Y007946D02*
X002271Y007946D01*
X002223Y007995D01*
X002223Y008043D01*
X002271Y008092D01*
X002416Y008092D01*
X002416Y008237D02*
X002271Y008237D01*
X002223Y008188D01*
X002223Y008140D01*
X002271Y008092D01*
X002122Y008188D02*
X002073Y008237D01*
X001977Y008237D01*
X001928Y008188D01*
X001928Y008140D01*
X002122Y007946D01*
X001928Y007946D01*
X002416Y007946D02*
X002416Y008237D01*
X002416Y008946D02*
X002271Y008946D01*
X002223Y008995D01*
X002223Y009043D01*
X002271Y009092D01*
X002416Y009092D01*
X002416Y009237D02*
X002271Y009237D01*
X002223Y009188D01*
X002223Y009140D01*
X002271Y009092D01*
X002122Y009140D02*
X002025Y009237D01*
X002025Y008946D01*
X002122Y008946D02*
X001928Y008946D01*
X002416Y008946D02*
X002416Y009237D01*
X002416Y010946D02*
X002271Y010946D01*
X002223Y010995D01*
X002223Y011043D01*
X002271Y011092D01*
X002416Y011092D01*
X002416Y011237D02*
X002271Y011237D01*
X002223Y011188D01*
X002223Y011140D01*
X002271Y011092D01*
X002122Y010995D02*
X002122Y011188D01*
X002073Y011237D01*
X001977Y011237D01*
X001928Y011188D01*
X002122Y010995D01*
X002073Y010946D01*
X001977Y010946D01*
X001928Y010995D01*
X001928Y011188D01*
X002416Y011237D02*
X002416Y010946D01*
X002416Y011946D02*
X002416Y012140D01*
X002320Y012237D01*
X002223Y012140D01*
X002223Y011946D01*
X002122Y011946D02*
X001928Y011946D01*
X002025Y011946D02*
X002025Y012237D01*
X002122Y012140D01*
X002223Y012092D02*
X002416Y012092D01*
X002416Y012946D02*
X002416Y013140D01*
X002320Y013237D01*
X002223Y013140D01*
X002223Y012946D01*
X002122Y012995D02*
X002122Y013188D01*
X002073Y013237D01*
X001977Y013237D01*
X001928Y013188D01*
X002122Y012995D01*
X002073Y012946D01*
X001977Y012946D01*
X001928Y012995D01*
X001928Y013188D01*
X002223Y013092D02*
X002416Y013092D01*
X002416Y013946D02*
X002416Y014237D01*
X002320Y014140D01*
X002223Y014237D01*
X002223Y013946D01*
X002122Y013995D02*
X002122Y014188D01*
X002073Y014237D01*
X001977Y014237D01*
X001928Y014188D01*
X001827Y014237D02*
X001827Y013946D01*
X001634Y013946D01*
X001532Y013946D02*
X001532Y014237D01*
X001387Y014237D01*
X001339Y014188D01*
X001339Y014092D01*
X001387Y014043D01*
X001532Y014043D01*
X001436Y014043D02*
X001339Y013946D01*
X001928Y013995D02*
X001977Y013946D01*
X002073Y013946D01*
X002122Y013995D01*
X017018Y009417D02*
X017211Y009417D01*
X017211Y009272D01*
X017114Y009320D01*
X017066Y009320D01*
X017018Y009272D01*
X017018Y009175D01*
X017066Y009126D01*
X017163Y009126D01*
X017211Y009175D01*
X017312Y009126D02*
X017506Y009126D01*
X017409Y009126D02*
X017409Y009417D01*
X017506Y009320D01*
X017607Y009320D02*
X017655Y009272D01*
X017800Y009272D01*
X017800Y009417D02*
X017655Y009417D01*
X017607Y009368D01*
X017607Y009320D01*
X017655Y009272D02*
X017607Y009223D01*
X017607Y009175D01*
X017655Y009126D01*
X017800Y009126D01*
X017800Y009417D01*
X017800Y008417D02*
X017655Y008417D01*
X017607Y008368D01*
X017607Y008320D01*
X017655Y008272D01*
X017800Y008272D01*
X017800Y008417D02*
X017800Y008126D01*
X017655Y008126D01*
X017607Y008175D01*
X017607Y008223D01*
X017655Y008272D01*
X017506Y008320D02*
X017409Y008417D01*
X017409Y008126D01*
X017506Y008126D02*
X017312Y008126D01*
X017211Y008272D02*
X017018Y008272D01*
X017066Y008417D02*
X017066Y008126D01*
X017211Y008272D02*
X017066Y008417D01*
X017066Y007417D02*
X017018Y007368D01*
X017018Y007320D01*
X017066Y007272D01*
X017018Y007223D01*
X017018Y007175D01*
X017066Y007126D01*
X017163Y007126D01*
X017211Y007175D01*
X017312Y007126D02*
X017506Y007126D01*
X017409Y007126D02*
X017409Y007417D01*
X017506Y007320D01*
X017607Y007320D02*
X017655Y007272D01*
X017800Y007272D01*
X017800Y007417D02*
X017655Y007417D01*
X017607Y007368D01*
X017607Y007320D01*
X017655Y007272D02*
X017607Y007223D01*
X017607Y007175D01*
X017655Y007126D01*
X017800Y007126D01*
X017800Y007417D01*
X017211Y007368D02*
X017163Y007417D01*
X017066Y007417D01*
X017066Y007272D02*
X017114Y007272D01*
X017066Y006417D02*
X017018Y006368D01*
X017018Y006175D01*
X017066Y006126D01*
X017163Y006126D01*
X017211Y006175D01*
X017312Y006175D02*
X017312Y006223D01*
X017361Y006272D01*
X017506Y006272D01*
X017506Y006417D02*
X017361Y006417D01*
X017312Y006368D01*
X017312Y006320D01*
X017361Y006272D01*
X017312Y006175D02*
X017361Y006126D01*
X017506Y006126D01*
X017506Y006417D01*
X017211Y006368D02*
X017211Y006320D01*
X017163Y006272D01*
X017018Y006272D01*
X017066Y006417D02*
X017163Y006417D01*
X017211Y006368D01*
X017163Y004417D02*
X017066Y004417D01*
X017018Y004368D01*
X017018Y004320D01*
X017066Y004272D01*
X017163Y004272D01*
X017211Y004320D01*
X017211Y004368D01*
X017163Y004417D01*
X017163Y004272D02*
X017211Y004223D01*
X017211Y004175D01*
X017163Y004126D01*
X017066Y004126D01*
X017018Y004175D01*
X017018Y004223D01*
X017066Y004272D01*
X017312Y004320D02*
X017361Y004272D01*
X017506Y004272D01*
X017506Y004417D02*
X017361Y004417D01*
X017312Y004368D01*
X017312Y004320D01*
X017361Y004272D02*
X017312Y004223D01*
X017312Y004175D01*
X017361Y004126D01*
X017506Y004126D01*
X017506Y004417D01*
X017506Y003417D02*
X017361Y003417D01*
X017312Y003368D01*
X017312Y003320D01*
X017361Y003272D01*
X017506Y003272D01*
X017506Y003417D02*
X017506Y003126D01*
X017361Y003126D01*
X017312Y003175D01*
X017312Y003223D01*
X017361Y003272D01*
X017211Y003175D02*
X017211Y003126D01*
X017211Y003175D02*
X017018Y003368D01*
X017018Y003417D01*
X017211Y003417D01*
X017211Y002417D02*
X017066Y002417D01*
X017018Y002368D01*
X017018Y002175D01*
X017066Y002126D01*
X017211Y002126D01*
X017211Y002417D01*
X017312Y002417D02*
X017312Y002126D01*
X017506Y002417D01*
X017506Y002126D01*
X017607Y002175D02*
X017607Y002272D01*
X017704Y002272D01*
X017800Y002368D02*
X017800Y002175D01*
X017752Y002126D01*
X017655Y002126D01*
X017607Y002175D01*
X017607Y002368D02*
X017655Y002417D01*
X017752Y002417D01*
X017800Y002368D01*
X017506Y001417D02*
X017312Y001417D01*
X017211Y001417D02*
X017211Y001223D01*
X017114Y001126D01*
X017018Y001223D01*
X017018Y001417D01*
X017312Y001272D02*
X017312Y001175D01*
X017361Y001126D01*
X017457Y001126D01*
X017506Y001175D01*
X017506Y001272D02*
X017409Y001320D01*
X017361Y001320D01*
X017312Y001272D01*
X017506Y001272D02*
X017506Y001417D01*
X019196Y009946D02*
X019567Y009946D01*
X019382Y010008D02*
X019196Y010193D01*
X019196Y010315D02*
X019196Y010438D01*
X019196Y010376D02*
X019567Y010376D01*
X019567Y010315D01*
X019567Y010193D02*
X019320Y009946D01*
X019443Y010560D02*
X019443Y010622D01*
X019196Y010622D01*
X019196Y010560D02*
X019196Y010684D01*
X019196Y010806D02*
X019443Y010806D01*
X019443Y010991D01*
X019382Y011053D01*
X019196Y011053D01*
X019196Y011174D02*
X019567Y011174D01*
X019443Y011359D02*
X019320Y011174D01*
X019196Y011359D01*
X019258Y011849D02*
X019196Y011911D01*
X019196Y012034D01*
X019258Y012096D01*
X019258Y012218D02*
X019196Y012279D01*
X019196Y012403D01*
X019258Y012464D01*
X019382Y012464D01*
X019443Y012403D01*
X019443Y012279D01*
X019382Y012218D01*
X019258Y012218D01*
X019505Y012096D02*
X019567Y012034D01*
X019567Y011911D01*
X019505Y011849D01*
X019258Y011849D01*
X019196Y012586D02*
X019443Y012586D01*
X019320Y012586D02*
X019443Y012709D01*
X019443Y012771D01*
X019443Y012893D02*
X019073Y012893D01*
X019196Y012893D02*
X019196Y013078D01*
X019258Y013140D01*
X019382Y013140D01*
X019443Y013078D01*
X019443Y012893D01*
X019382Y013261D02*
X019443Y013323D01*
X019443Y013508D01*
X019320Y013446D02*
X019320Y013323D01*
X019382Y013261D01*
X019196Y013261D02*
X019196Y013446D01*
X019258Y013508D01*
X019320Y013446D01*
X019567Y010622D02*
X019628Y010622D01*
D12*
X004504Y015827D02*
X004504Y019370D01*
X001433Y019370D01*
X001433Y015827D01*
X004504Y015827D01*
X003264Y017205D02*
X002674Y017205D01*
X002477Y019174D01*
X002181Y019174D02*
X002378Y017402D01*
X001591Y017402D02*
X001788Y019174D01*
X002181Y019174D01*
X003461Y019174D02*
X003264Y017205D01*
X003559Y017599D02*
X003756Y019174D01*
X004150Y019174D01*
X004347Y017599D01*
M02*
