G75*
G70*
%OFA0B0*%
%FSLAX24Y24*%
%IPPOS*%
%LPD*%
%AMOC8*
5,1,8,0,0,1.08239X$1,22.5*
%
%ADD10C,0.0000*%
%ADD11R,0.0740X0.0740*%
%ADD12C,0.0740*%
%ADD13C,0.0515*%
%ADD14C,0.1122*%
%ADD15C,0.0600*%
%ADD16R,0.0650X0.0650*%
%ADD17C,0.0650*%
%ADD18C,0.0520*%
%ADD19OC8,0.0650*%
%ADD20R,0.0650X0.0650*%
%ADD21R,0.0520X0.0520*%
%ADD22OC8,0.0520*%
%ADD23C,0.0160*%
%ADD24C,0.0356*%
%ADD25R,0.0472X0.0472*%
D10*
X000181Y000181D02*
X019866Y000181D01*
X019866Y019866D01*
X000181Y019866D01*
X000181Y000181D01*
D11*
X000681Y004181D03*
X000681Y009181D03*
X000681Y014181D03*
X007071Y001363D03*
X019181Y004181D03*
X019181Y009181D03*
D12*
X019181Y008181D03*
X019181Y007181D03*
X019181Y006181D03*
X019181Y003181D03*
X019181Y002181D03*
X019181Y001181D03*
X006071Y001363D03*
X005071Y001363D03*
X004071Y001363D03*
X003071Y001363D03*
X000681Y001181D03*
X000681Y002181D03*
X000681Y003181D03*
X000681Y006181D03*
X000681Y007181D03*
X000681Y008181D03*
X000681Y011181D03*
X000681Y012181D03*
X000681Y013181D03*
D13*
X002269Y015794D03*
X002969Y015794D03*
X002639Y016414D03*
X003329Y016414D03*
X003639Y015794D03*
D14*
X004406Y017894D03*
X001532Y017894D03*
D15*
X005881Y017681D02*
X006481Y017681D01*
X006481Y016681D02*
X005881Y016681D01*
X005881Y018681D02*
X006481Y018681D01*
D16*
X009107Y017107D03*
X015536Y006193D03*
D17*
X015536Y005193D03*
X009107Y016107D03*
D18*
X008579Y014394D02*
X008059Y014394D01*
X008059Y013394D02*
X008579Y013394D01*
X008579Y012394D02*
X008059Y012394D01*
X008059Y011394D02*
X008579Y011394D01*
X008579Y010394D02*
X008059Y010394D01*
X008059Y009394D02*
X008579Y009394D01*
X008579Y008394D02*
X008059Y008394D01*
X008059Y007394D02*
X008579Y007394D01*
X008579Y006394D02*
X008059Y006394D01*
X008059Y005394D02*
X008579Y005394D01*
X008579Y004394D02*
X008059Y004394D01*
X008059Y003394D02*
X008579Y003394D01*
X008579Y002394D02*
X008059Y002394D01*
X008059Y001394D02*
X008579Y001394D01*
X011059Y001394D02*
X011579Y001394D01*
X011579Y002394D02*
X011059Y002394D01*
X011059Y003394D02*
X011579Y003394D01*
X011579Y004394D02*
X011059Y004394D01*
X011059Y005394D02*
X011579Y005394D01*
X011579Y006394D02*
X011059Y006394D01*
X011059Y007394D02*
X011579Y007394D01*
X011579Y008394D02*
X011059Y008394D01*
X011059Y009394D02*
X011579Y009394D01*
X011579Y010394D02*
X011059Y010394D01*
X011059Y011394D02*
X011579Y011394D01*
X011579Y012394D02*
X011059Y012394D01*
X011059Y013394D02*
X011579Y013394D01*
X011579Y014394D02*
X011059Y014394D01*
D19*
X011205Y015823D03*
X011205Y016823D03*
X012461Y015929D03*
X013174Y014067D03*
X013174Y013067D03*
X015461Y015929D03*
X017111Y016248D03*
X018473Y016248D03*
X018473Y013248D03*
X017111Y013248D03*
X014835Y010016D03*
X014835Y007016D03*
X013174Y003945D03*
X013174Y000945D03*
X006193Y002937D03*
X005193Y002937D03*
X007949Y019079D03*
X008949Y019079D03*
D20*
X014122Y018422D03*
X016122Y018422D03*
X017248Y018406D03*
X019248Y018406D03*
X006311Y007449D03*
X006311Y006449D03*
X006311Y005449D03*
D21*
X015410Y001004D03*
X017969Y011012D03*
X011429Y017878D03*
D22*
X011429Y018878D03*
X017969Y012012D03*
X015410Y002004D03*
D23*
X015410Y002004D01*
X015850Y002004D01*
X015850Y001822D01*
X015592Y001564D01*
X015410Y001564D01*
X015410Y002004D01*
X015410Y002004D01*
X015850Y002004D01*
X015850Y002186D01*
X015592Y002444D01*
X015410Y002444D01*
X015410Y002005D01*
X015410Y002005D01*
X015410Y002444D01*
X015228Y002444D01*
X014970Y002186D01*
X014970Y002004D01*
X014970Y001822D01*
X015228Y001564D01*
X015410Y001564D01*
X015410Y002004D01*
X015409Y002004D02*
X014970Y002004D01*
X015409Y002004D01*
X015409Y002004D01*
X015410Y001925D02*
X015410Y001925D01*
X015410Y001767D02*
X015410Y001767D01*
X015410Y001608D02*
X015410Y001608D01*
X015636Y001608D02*
X018746Y001608D01*
X018664Y001527D02*
X018836Y001699D01*
X018883Y001718D01*
X018823Y001762D01*
X018762Y001823D01*
X018711Y001893D01*
X018672Y001970D01*
X018645Y002053D01*
X018631Y002138D01*
X018631Y002161D01*
X019161Y002161D01*
X019161Y002201D01*
X018631Y002201D01*
X018631Y002225D01*
X018645Y002310D01*
X018672Y002393D01*
X018711Y002470D01*
X018762Y002540D01*
X018823Y002601D01*
X018883Y002645D01*
X018836Y002664D01*
X018664Y002836D01*
X018571Y003060D01*
X018571Y003121D01*
X018458Y003074D01*
X018330Y003074D01*
X011966Y003074D01*
X011862Y002970D01*
X011679Y002894D01*
X011862Y002818D01*
X012003Y002677D01*
X012079Y002493D01*
X012079Y002295D01*
X012003Y002111D01*
X011862Y001970D01*
X011679Y001894D01*
X010960Y001894D01*
X010776Y001970D01*
X010635Y002111D01*
X010559Y002295D01*
X010559Y002493D01*
X010635Y002677D01*
X010776Y002818D01*
X010960Y002894D01*
X011679Y002894D01*
X010960Y002894D01*
X010776Y002970D01*
X010635Y003111D01*
X010559Y003295D01*
X010559Y003493D01*
X010635Y003677D01*
X010776Y003818D01*
X010960Y003894D01*
X011679Y003894D01*
X011862Y003818D01*
X011966Y003714D01*
X012609Y003714D01*
X012609Y004074D01*
X012598Y004074D01*
X011966Y004074D01*
X011862Y003970D01*
X011679Y003894D01*
X010960Y003894D01*
X010776Y003970D01*
X010635Y004111D01*
X010559Y004295D01*
X010559Y004493D01*
X010635Y004677D01*
X010776Y004818D01*
X010960Y004894D01*
X011679Y004894D01*
X011862Y004818D01*
X011966Y004714D01*
X012529Y004714D01*
X012599Y004783D01*
X012716Y004832D01*
X015183Y004832D01*
X015151Y004864D01*
X015104Y004929D01*
X015068Y004999D01*
X015043Y005075D01*
X015031Y005153D01*
X015031Y005165D01*
X015507Y005165D01*
X015507Y005221D01*
X015031Y005221D01*
X015031Y005233D01*
X015043Y005311D01*
X015068Y005387D01*
X015104Y005458D01*
X015151Y005522D01*
X015207Y005578D01*
X015271Y005625D01*
X015277Y005628D01*
X015163Y005628D01*
X015075Y005665D01*
X015007Y005732D01*
X014971Y005820D01*
X014971Y005981D01*
X014515Y006074D01*
X011966Y006074D01*
X011862Y005970D01*
X011679Y005894D01*
X010960Y005894D01*
X010776Y005970D01*
X010635Y006111D01*
X010559Y006295D01*
X010559Y006493D01*
X010635Y006677D01*
X010776Y006818D01*
X010960Y006894D01*
X011679Y006894D01*
X011862Y006970D01*
X012003Y007111D01*
X012079Y007295D01*
X012079Y007493D01*
X012003Y007677D01*
X011862Y007818D01*
X011679Y007894D01*
X010960Y007894D01*
X010776Y007818D01*
X010635Y007677D01*
X010559Y007493D01*
X010559Y007295D01*
X010635Y007111D01*
X010776Y006970D01*
X010960Y006894D01*
X011679Y006894D01*
X011862Y006818D01*
X011966Y006714D01*
X014338Y006714D01*
X014270Y006782D01*
X014270Y007250D01*
X014601Y007581D01*
X015069Y007581D01*
X015400Y007250D01*
X015400Y006782D01*
X015376Y006758D01*
X015908Y006758D01*
X015997Y006722D01*
X016064Y006654D01*
X016101Y006566D01*
X016101Y005820D01*
X016064Y005732D01*
X015997Y005665D01*
X015908Y005628D01*
X015794Y005628D01*
X015800Y005625D01*
X015865Y005578D01*
X015921Y005522D01*
X015968Y005458D01*
X016004Y005387D01*
X016028Y005311D01*
X016041Y005233D01*
X016041Y005221D01*
X015564Y005221D01*
X015564Y005165D01*
X016041Y005165D01*
X016041Y005153D01*
X016028Y005075D01*
X016004Y004999D01*
X015968Y004929D01*
X015921Y004864D01*
X015889Y004832D01*
X017380Y004832D01*
X018582Y006035D01*
X018571Y006060D01*
X018571Y006303D01*
X018664Y006527D01*
X018819Y006681D01*
X018664Y006836D01*
X018617Y006950D01*
X018504Y006997D01*
X018414Y007087D01*
X015400Y010101D01*
X015400Y009782D01*
X015069Y009451D01*
X014601Y009451D01*
X014270Y009782D01*
X014270Y010250D01*
X014512Y010491D01*
X014487Y010491D01*
X014119Y010123D01*
X014001Y010074D01*
X013874Y010074D01*
X011966Y010074D01*
X011862Y009970D01*
X011679Y009894D01*
X010960Y009894D01*
X010776Y009970D01*
X010635Y010111D01*
X010559Y010295D01*
X010559Y010493D01*
X010635Y010677D01*
X010776Y010818D01*
X010960Y010894D01*
X011679Y010894D01*
X011862Y010818D01*
X011966Y010714D01*
X013805Y010714D01*
X014083Y010993D01*
X014165Y011074D01*
X011966Y011074D01*
X011862Y010970D01*
X011679Y010894D01*
X010960Y010894D01*
X010776Y010970D01*
X010635Y011111D01*
X010559Y011295D01*
X010559Y011493D01*
X010635Y011677D01*
X010776Y011818D01*
X010960Y011894D01*
X011679Y011894D01*
X011862Y011818D01*
X011966Y011714D01*
X015283Y011714D01*
X015410Y011714D01*
X015528Y011665D01*
X018424Y008769D01*
X018571Y008769D01*
X018571Y008937D01*
X018504Y008965D01*
X018414Y009055D01*
X015395Y012074D01*
X011966Y012074D01*
X011862Y011970D01*
X011679Y011894D01*
X010960Y011894D01*
X010776Y011970D01*
X010635Y012111D01*
X010559Y012295D01*
X010559Y012493D01*
X010635Y012677D01*
X010776Y012818D01*
X010960Y012894D01*
X011679Y012894D01*
X011862Y012818D01*
X011966Y012714D01*
X012813Y012714D01*
X012669Y012858D01*
X012669Y013039D01*
X013145Y013039D01*
X013145Y013096D01*
X012669Y013096D01*
X012669Y013276D01*
X012917Y013525D01*
X012695Y013747D01*
X012665Y013747D01*
X012623Y013705D01*
X012469Y013641D01*
X012303Y013641D01*
X012149Y013705D01*
X012107Y013747D01*
X011841Y013747D01*
X011866Y013730D01*
X011915Y013681D01*
X011956Y013625D01*
X011987Y013563D01*
X012008Y013497D01*
X012019Y013429D01*
X012019Y013394D01*
X011320Y013394D01*
X011320Y013394D01*
X012019Y013394D01*
X012019Y013359D01*
X012008Y013291D01*
X011987Y013225D01*
X011956Y013163D01*
X011915Y013107D01*
X011866Y013058D01*
X011810Y013018D01*
X011748Y012986D01*
X011682Y012965D01*
X011614Y012954D01*
X011319Y012954D01*
X011319Y013394D01*
X011319Y013394D01*
X010619Y013394D01*
X010619Y013429D01*
X010630Y013497D01*
X010651Y013563D01*
X010683Y013625D01*
X010724Y013681D01*
X010773Y013730D01*
X010829Y013770D01*
X010890Y013802D01*
X010956Y013823D01*
X011025Y013834D01*
X011319Y013834D01*
X011319Y013394D01*
X010619Y013394D01*
X010619Y013359D01*
X010630Y013291D01*
X010651Y013225D01*
X010683Y013163D01*
X010724Y013107D01*
X010773Y013058D01*
X010829Y013018D01*
X010890Y012986D01*
X010956Y012965D01*
X011025Y012954D01*
X011319Y012954D01*
X011319Y013394D01*
X011319Y013394D01*
X011319Y013394D01*
X011319Y013834D01*
X011427Y013834D01*
X011367Y013894D01*
X010960Y013894D01*
X010776Y013970D01*
X010635Y014111D01*
X010559Y014295D01*
X010559Y014493D01*
X010635Y014677D01*
X010776Y014818D01*
X010786Y014822D01*
X009200Y014822D01*
X009018Y014641D01*
X009079Y014493D01*
X009079Y014295D01*
X009018Y014147D01*
X009508Y013658D01*
X009556Y013540D01*
X009556Y013413D01*
X009556Y011476D01*
X009591Y011442D01*
X009655Y011288D01*
X009655Y011122D01*
X009591Y010968D01*
X009473Y010851D01*
X009320Y010787D01*
X009153Y010787D01*
X009000Y010851D01*
X008882Y010968D01*
X008876Y010984D01*
X008862Y010970D01*
X008679Y010894D01*
X007960Y010894D01*
X007776Y010970D01*
X007672Y011074D01*
X004382Y011074D01*
X004355Y011047D01*
X004202Y010984D01*
X004035Y010984D01*
X003882Y011047D01*
X003855Y011074D01*
X001291Y011074D01*
X001291Y011060D01*
X001199Y010836D01*
X001027Y010664D01*
X000803Y010571D01*
X000560Y010571D01*
X000421Y010629D01*
X000421Y009791D01*
X001099Y009791D01*
X001187Y009755D01*
X001255Y009687D01*
X001291Y009599D01*
X001291Y009556D01*
X001879Y009556D01*
X001913Y009591D01*
X002067Y009655D01*
X002233Y009655D01*
X002387Y009591D01*
X002421Y009556D01*
X004380Y009556D01*
X005488Y010665D01*
X005606Y010714D01*
X005733Y010714D01*
X007672Y010714D01*
X007776Y010818D01*
X007960Y010894D01*
X008679Y010894D01*
X008862Y010818D01*
X009003Y010677D01*
X009079Y010493D01*
X009079Y010295D01*
X009003Y010111D01*
X008862Y009970D01*
X008679Y009894D01*
X007960Y009894D01*
X007776Y009970D01*
X007672Y010074D01*
X005802Y010074D01*
X004693Y008965D01*
X004576Y008917D01*
X004448Y008917D01*
X002421Y008917D01*
X002387Y008882D01*
X002233Y008818D01*
X002067Y008818D01*
X001913Y008882D01*
X001879Y008917D01*
X001291Y008917D01*
X001291Y008764D01*
X001255Y008675D01*
X001187Y008608D01*
X001138Y008587D01*
X001199Y008527D01*
X001261Y008375D01*
X004380Y008375D01*
X005669Y009665D01*
X005787Y009714D01*
X005914Y009714D01*
X007672Y009714D01*
X007776Y009818D01*
X007960Y009894D01*
X008679Y009894D01*
X008862Y009818D01*
X009003Y009677D01*
X009079Y009493D01*
X009079Y009295D01*
X009003Y009111D01*
X008862Y008970D01*
X008679Y008894D01*
X007960Y008894D01*
X007776Y008970D01*
X007672Y009074D01*
X005983Y009074D01*
X004783Y007874D01*
X004693Y007784D01*
X004576Y007735D01*
X001098Y007735D01*
X001044Y007681D01*
X001199Y007527D01*
X001209Y007501D01*
X004687Y007501D01*
X005816Y008630D01*
X005906Y008720D01*
X006023Y008769D01*
X007727Y008769D01*
X007776Y008818D01*
X007960Y008894D01*
X008679Y008894D01*
X008862Y008818D01*
X009003Y008677D01*
X009079Y008493D01*
X009079Y008295D01*
X009003Y008111D01*
X008862Y007970D01*
X008679Y007894D01*
X007960Y007894D01*
X007776Y007970D01*
X007635Y008111D01*
X007628Y008129D01*
X006219Y008129D01*
X006104Y008014D01*
X006684Y008014D01*
X006772Y007977D01*
X006840Y007910D01*
X006876Y007822D01*
X006876Y007077D01*
X006840Y006988D01*
X006772Y006921D01*
X006752Y006913D01*
X006780Y006884D01*
X006804Y006843D01*
X006816Y006798D01*
X006816Y006477D01*
X006340Y006477D01*
X006340Y006421D01*
X006816Y006421D01*
X006816Y006101D01*
X006804Y006055D01*
X006780Y006014D01*
X006752Y005986D01*
X006772Y005977D01*
X006840Y005910D01*
X006876Y005822D01*
X006876Y005077D01*
X006840Y004988D01*
X006772Y004921D01*
X006684Y004884D01*
X005939Y004884D01*
X005851Y004921D01*
X005783Y004988D01*
X005747Y005077D01*
X005747Y005822D01*
X005783Y005910D01*
X005851Y005977D01*
X005871Y005986D01*
X005842Y006014D01*
X005819Y006055D01*
X005807Y006101D01*
X005807Y006421D01*
X006283Y006421D01*
X006283Y006477D01*
X005807Y006477D01*
X005807Y006798D01*
X005819Y006843D01*
X005842Y006884D01*
X005871Y006913D01*
X005851Y006921D01*
X005783Y006988D01*
X005747Y007077D01*
X005747Y007656D01*
X005000Y006910D01*
X004883Y006861D01*
X004756Y006861D01*
X001209Y006861D01*
X001199Y006836D01*
X001044Y006681D01*
X001199Y006527D01*
X001209Y006501D01*
X004088Y006501D01*
X004205Y006453D01*
X004295Y006363D01*
X005826Y004832D01*
X007810Y004832D01*
X007960Y004894D01*
X008679Y004894D01*
X008862Y004970D01*
X009003Y005111D01*
X009079Y005295D01*
X009079Y005493D01*
X009003Y005677D01*
X008862Y005818D01*
X008679Y005894D01*
X007960Y005894D01*
X007776Y005818D01*
X007635Y005677D01*
X007559Y005493D01*
X007559Y005295D01*
X007635Y005111D01*
X007776Y004970D01*
X007960Y004894D01*
X008679Y004894D01*
X008862Y004818D01*
X009003Y004677D01*
X009079Y004493D01*
X009079Y004295D01*
X009003Y004111D01*
X008862Y003970D01*
X008679Y003894D01*
X007960Y003894D01*
X007776Y003970D01*
X007635Y004111D01*
X007602Y004192D01*
X006859Y004192D01*
X007338Y003714D01*
X007672Y003714D01*
X007776Y003818D01*
X007960Y003894D01*
X008679Y003894D01*
X008862Y003818D01*
X009003Y003677D01*
X009046Y003573D01*
X009704Y004231D01*
X009704Y008906D01*
X009753Y009024D01*
X009843Y009114D01*
X010394Y009665D01*
X010511Y009714D01*
X010639Y009714D01*
X010672Y009714D01*
X010776Y009818D01*
X010960Y009894D01*
X011679Y009894D01*
X011862Y009818D01*
X012003Y009677D01*
X012079Y009493D01*
X012079Y009295D01*
X012003Y009111D01*
X011862Y008970D01*
X011679Y008894D01*
X011862Y008818D01*
X012003Y008677D01*
X012079Y008493D01*
X012079Y008295D01*
X012003Y008111D01*
X011862Y007970D01*
X011679Y007894D01*
X010960Y007894D01*
X010776Y007970D01*
X010635Y008111D01*
X010559Y008295D01*
X010559Y008493D01*
X010635Y008677D01*
X010776Y008818D01*
X010960Y008894D01*
X011679Y008894D01*
X010960Y008894D01*
X010776Y008970D01*
X010690Y009056D01*
X010344Y008710D01*
X010344Y004162D01*
X010344Y004035D01*
X010295Y003917D01*
X009018Y002641D01*
X009079Y002493D01*
X009079Y002295D01*
X009003Y002111D01*
X008862Y001970D01*
X008679Y001894D01*
X007976Y001894D01*
X007976Y001894D01*
X008679Y001894D01*
X008862Y001818D01*
X009003Y001677D01*
X009079Y001493D01*
X009079Y001295D01*
X009003Y001111D01*
X008862Y000970D01*
X008679Y000894D01*
X007960Y000894D01*
X007776Y000970D01*
X007681Y001065D01*
X007681Y000945D01*
X007645Y000857D01*
X007577Y000789D01*
X007489Y000753D01*
X006653Y000753D01*
X006565Y000789D01*
X006498Y000857D01*
X006477Y000906D01*
X006417Y000845D01*
X006193Y000753D01*
X005950Y000753D01*
X005935Y000759D01*
X005598Y000421D01*
X011744Y000421D01*
X011362Y000894D01*
X010960Y000894D01*
X010776Y000970D01*
X010635Y001111D01*
X010559Y001295D01*
X010559Y001493D01*
X010635Y001677D01*
X010776Y001818D01*
X010960Y001894D01*
X011679Y001894D01*
X011862Y001818D01*
X012003Y001677D01*
X012079Y001493D01*
X012079Y001295D01*
X012005Y001116D01*
X012342Y000698D01*
X012622Y000698D01*
X012609Y000711D01*
X012609Y001179D01*
X012940Y001510D01*
X013407Y001510D01*
X013652Y001265D01*
X014910Y001265D01*
X014910Y001312D01*
X014946Y001400D01*
X015014Y001468D01*
X015102Y001504D01*
X015717Y001504D01*
X015806Y001468D01*
X015873Y001400D01*
X015910Y001312D01*
X015910Y000698D01*
X018416Y000698D01*
X018613Y000960D01*
X018571Y001060D01*
X018571Y001303D01*
X018664Y001527D01*
X018632Y001450D02*
X015824Y001450D01*
X015910Y001291D02*
X018571Y001291D01*
X018571Y001133D02*
X015910Y001133D01*
X015910Y000974D02*
X018607Y000974D01*
X018504Y000816D02*
X015910Y000816D01*
X015410Y001004D02*
X015351Y000945D01*
X013174Y000945D01*
X013626Y001291D02*
X014910Y001291D01*
X014996Y001450D02*
X013468Y001450D01*
X012879Y001450D02*
X012079Y001450D01*
X012078Y001291D02*
X012721Y001291D01*
X012609Y001133D02*
X012012Y001133D01*
X012120Y000974D02*
X012609Y000974D01*
X012609Y000816D02*
X012248Y000816D01*
X012189Y000378D02*
X018575Y000378D01*
X019181Y001181D01*
X018818Y001767D02*
X015795Y001767D01*
X015850Y001925D02*
X018695Y001925D01*
X018640Y002084D02*
X015850Y002084D01*
X015794Y002242D02*
X018634Y002242D01*
X018676Y002401D02*
X015635Y002401D01*
X015410Y002401D02*
X015410Y002401D01*
X015410Y002242D02*
X015410Y002242D01*
X015410Y002084D02*
X015410Y002084D01*
X015184Y002401D02*
X012079Y002401D01*
X012058Y002242D02*
X015026Y002242D01*
X014970Y002084D02*
X011976Y002084D01*
X011754Y001925D02*
X014970Y001925D01*
X015025Y001767D02*
X011913Y001767D01*
X012032Y001608D02*
X015183Y001608D01*
X012609Y003828D02*
X011838Y003828D01*
X011879Y003986D02*
X012609Y003986D01*
X012662Y004394D02*
X012780Y004512D01*
X017512Y004512D01*
X019181Y006181D01*
X018663Y006523D02*
X016101Y006523D01*
X016101Y006365D02*
X018597Y006365D01*
X018571Y006206D02*
X016101Y006206D01*
X016101Y006048D02*
X018577Y006048D01*
X018436Y005889D02*
X016101Y005889D01*
X016062Y005730D02*
X018278Y005730D01*
X018119Y005572D02*
X015871Y005572D01*
X015990Y005413D02*
X017961Y005413D01*
X017802Y005255D02*
X016037Y005255D01*
X016032Y005096D02*
X017644Y005096D01*
X017485Y004938D02*
X015972Y004938D01*
X015099Y004938D02*
X010344Y004938D01*
X010344Y005096D02*
X010735Y005096D01*
X010724Y005107D02*
X010773Y005058D01*
X010829Y005018D01*
X010890Y004986D01*
X010956Y004965D01*
X011025Y004954D01*
X011319Y004954D01*
X011319Y005394D01*
X011319Y005394D01*
X010619Y005394D01*
X010619Y005429D01*
X010630Y005497D01*
X010651Y005563D01*
X010683Y005625D01*
X010724Y005681D01*
X010773Y005730D01*
X010829Y005770D01*
X010890Y005802D01*
X010956Y005823D01*
X011025Y005834D01*
X011319Y005834D01*
X011319Y005394D01*
X010619Y005394D01*
X010619Y005359D01*
X010630Y005291D01*
X010651Y005225D01*
X010683Y005163D01*
X010724Y005107D01*
X010642Y005255D02*
X010344Y005255D01*
X010344Y005413D02*
X010619Y005413D01*
X010656Y005572D02*
X010344Y005572D01*
X010344Y005730D02*
X010774Y005730D01*
X010699Y006048D02*
X010344Y006048D01*
X010344Y006206D02*
X010596Y006206D01*
X010559Y006365D02*
X010344Y006365D01*
X010344Y006523D02*
X010572Y006523D01*
X010640Y006682D02*
X010344Y006682D01*
X010344Y006840D02*
X010830Y006840D01*
X010747Y006999D02*
X010344Y006999D01*
X010344Y007157D02*
X010616Y007157D01*
X010559Y007316D02*
X010344Y007316D01*
X010344Y007474D02*
X010559Y007474D01*
X010617Y007633D02*
X010344Y007633D01*
X010344Y007791D02*
X010750Y007791D01*
X010824Y007950D02*
X010344Y007950D01*
X010344Y008109D02*
X010638Y008109D01*
X010571Y008267D02*
X010344Y008267D01*
X010344Y008426D02*
X010559Y008426D01*
X010597Y008584D02*
X010344Y008584D01*
X010376Y008743D02*
X010701Y008743D01*
X010535Y008901D02*
X010942Y008901D01*
X010575Y009394D02*
X010024Y008843D01*
X010024Y004099D01*
X008319Y002394D01*
X008205Y002394D01*
X007662Y002937D01*
X006193Y002937D01*
X005810Y003352D02*
X005492Y003352D01*
X005402Y003442D02*
X005221Y003442D01*
X005221Y002966D01*
X005165Y002966D01*
X005165Y003442D01*
X004984Y003442D01*
X004688Y003146D01*
X004688Y002966D01*
X005165Y002966D01*
X005165Y002909D01*
X004688Y002909D01*
X004688Y002728D01*
X004947Y002470D01*
X003857Y002470D01*
X002815Y003512D01*
X002725Y003602D01*
X002607Y003651D01*
X001230Y003651D01*
X001255Y003675D01*
X001291Y003764D01*
X001291Y003798D01*
X006348Y003798D01*
X006889Y003257D01*
X006672Y003257D01*
X006427Y003502D01*
X005959Y003502D01*
X005651Y003194D01*
X005651Y003194D01*
X005402Y003442D01*
X005221Y003352D02*
X005165Y003352D01*
X005165Y003194D02*
X005221Y003194D01*
X005221Y003035D02*
X005165Y003035D01*
X004894Y003352D02*
X002975Y003352D01*
X003133Y003194D02*
X004736Y003194D01*
X004688Y003035D02*
X003292Y003035D01*
X003451Y002877D02*
X004688Y002877D01*
X004699Y002718D02*
X003609Y002718D01*
X003768Y002560D02*
X004857Y002560D01*
X003725Y002150D02*
X002544Y003331D01*
X000831Y003331D01*
X000681Y003181D01*
X001081Y002718D02*
X002704Y002718D01*
X002862Y002560D02*
X001081Y002560D01*
X001101Y002540D02*
X001040Y002601D01*
X000979Y002645D01*
X001027Y002664D01*
X001199Y002836D01*
X001271Y003011D01*
X002411Y003011D01*
X003543Y001879D01*
X003661Y001830D01*
X003676Y001830D01*
X003571Y001725D01*
X003417Y001880D01*
X003193Y001972D01*
X002950Y001972D01*
X002726Y001880D01*
X002554Y001708D01*
X002461Y001484D01*
X002461Y001241D01*
X002554Y001017D01*
X002676Y000895D01*
X001420Y000895D01*
X001281Y001035D01*
X001291Y001060D01*
X001291Y001303D01*
X001199Y001527D01*
X001027Y001699D01*
X000979Y001718D01*
X001040Y001762D01*
X001101Y001823D01*
X001152Y001893D01*
X001191Y001970D01*
X001218Y002053D01*
X001231Y002138D01*
X001231Y002161D01*
X000702Y002161D01*
X000702Y002201D01*
X001231Y002201D01*
X001231Y002225D01*
X001218Y002310D01*
X001191Y002393D01*
X001152Y002470D01*
X001101Y002540D01*
X001187Y002401D02*
X003021Y002401D01*
X003180Y002242D02*
X001229Y002242D01*
X001223Y002084D02*
X003338Y002084D01*
X003306Y001925D02*
X003497Y001925D01*
X003529Y001767D02*
X003613Y001767D01*
X003725Y002150D02*
X007268Y002150D01*
X008024Y001394D01*
X008319Y001394D01*
X008754Y001925D02*
X010884Y001925D01*
X010725Y001767D02*
X008913Y001767D01*
X009032Y001608D02*
X010607Y001608D01*
X010559Y001450D02*
X009079Y001450D01*
X009078Y001291D02*
X010561Y001291D01*
X010626Y001133D02*
X009012Y001133D01*
X008866Y000974D02*
X010772Y000974D01*
X011426Y000816D02*
X007604Y000816D01*
X007681Y000974D02*
X007772Y000974D01*
X006539Y000816D02*
X006345Y000816D01*
X005834Y000657D02*
X011553Y000657D01*
X011681Y000499D02*
X005675Y000499D01*
X005300Y000575D02*
X006071Y001347D01*
X006071Y001363D01*
X006193Y001512D01*
X005300Y000575D02*
X001288Y000575D01*
X000681Y001181D01*
X001117Y001608D02*
X002513Y001608D01*
X002461Y001450D02*
X001231Y001450D01*
X001291Y001291D02*
X002461Y001291D01*
X002506Y001133D02*
X001291Y001133D01*
X001341Y000974D02*
X002597Y000974D01*
X002613Y001767D02*
X001045Y001767D01*
X001168Y001925D02*
X002836Y001925D01*
X002545Y002877D02*
X001215Y002877D01*
X001249Y003669D02*
X006477Y003669D01*
X006636Y003511D02*
X002816Y003511D01*
X000744Y004118D02*
X000681Y004181D01*
X000744Y004118D02*
X006481Y004118D01*
X007205Y003394D01*
X008319Y003394D01*
X007800Y003828D02*
X007224Y003828D01*
X007065Y003986D02*
X007760Y003986D01*
X007621Y004145D02*
X006907Y004145D01*
X006794Y003352D02*
X006577Y003352D01*
X005693Y004512D02*
X004024Y006181D01*
X000681Y006181D01*
X001200Y006523D02*
X005807Y006523D01*
X005807Y006365D02*
X004293Y006365D01*
X004452Y006206D02*
X005807Y006206D01*
X005823Y006048D02*
X004610Y006048D01*
X004769Y005889D02*
X005774Y005889D01*
X005747Y005730D02*
X004927Y005730D01*
X005086Y005572D02*
X005747Y005572D01*
X005747Y005413D02*
X005245Y005413D01*
X005403Y005255D02*
X005747Y005255D01*
X005747Y005096D02*
X005562Y005096D01*
X005720Y004938D02*
X005834Y004938D01*
X005693Y004512D02*
X008201Y004512D01*
X008319Y004394D01*
X008879Y003986D02*
X009459Y003986D01*
X009301Y003828D02*
X008838Y003828D01*
X009006Y003669D02*
X009142Y003669D01*
X009017Y004145D02*
X009618Y004145D01*
X009704Y004304D02*
X009079Y004304D01*
X009079Y004462D02*
X009704Y004462D01*
X009704Y004621D02*
X009027Y004621D01*
X008901Y004779D02*
X009704Y004779D01*
X009704Y004938D02*
X008784Y004938D01*
X008989Y005096D02*
X009704Y005096D01*
X009704Y005255D02*
X009063Y005255D01*
X009079Y005413D02*
X009704Y005413D01*
X009704Y005572D02*
X009047Y005572D01*
X008950Y005730D02*
X009704Y005730D01*
X009704Y005889D02*
X008691Y005889D01*
X008679Y005894D02*
X008862Y005970D01*
X009003Y006111D01*
X009079Y006295D01*
X009079Y006493D01*
X009003Y006677D01*
X008862Y006818D01*
X008679Y006894D01*
X007960Y006894D01*
X007776Y006818D01*
X007635Y006677D01*
X007559Y006493D01*
X007559Y006295D01*
X007635Y006111D01*
X007776Y005970D01*
X007960Y005894D01*
X008679Y005894D01*
X008940Y006048D02*
X009704Y006048D01*
X009704Y006206D02*
X009043Y006206D01*
X009079Y006365D02*
X009704Y006365D01*
X009704Y006523D02*
X009067Y006523D01*
X008999Y006682D02*
X009704Y006682D01*
X009704Y006840D02*
X008808Y006840D01*
X008748Y006986D02*
X008810Y007018D01*
X008866Y007058D01*
X008915Y007107D01*
X008956Y007163D01*
X008987Y007225D01*
X009008Y007291D01*
X009019Y007359D01*
X009019Y007394D01*
X009019Y007429D01*
X009008Y007497D01*
X008987Y007563D01*
X008956Y007625D01*
X008915Y007681D01*
X008866Y007730D01*
X008810Y007770D01*
X008748Y007802D01*
X008682Y007823D01*
X008614Y007834D01*
X008319Y007834D01*
X008025Y007834D01*
X007956Y007823D01*
X007890Y007802D01*
X007829Y007770D01*
X007773Y007730D01*
X007724Y007681D01*
X007683Y007625D01*
X007651Y007563D01*
X007630Y007497D01*
X007619Y007429D01*
X007619Y007394D01*
X008319Y007394D01*
X008319Y007394D01*
X007619Y007394D01*
X007619Y007359D01*
X007630Y007291D01*
X007651Y007225D01*
X007683Y007163D01*
X007724Y007107D01*
X007773Y007058D01*
X007829Y007018D01*
X007890Y006986D01*
X007956Y006965D01*
X008025Y006954D01*
X008319Y006954D01*
X008319Y007394D01*
X008319Y007834D01*
X008319Y007394D01*
X008319Y007394D01*
X008319Y007394D01*
X008319Y006954D01*
X008614Y006954D01*
X008682Y006965D01*
X008748Y006986D01*
X008773Y006999D02*
X009704Y006999D01*
X009704Y007157D02*
X008951Y007157D01*
X009012Y007316D02*
X009704Y007316D01*
X009704Y007474D02*
X009012Y007474D01*
X009019Y007394D02*
X008320Y007394D01*
X008320Y007394D01*
X009019Y007394D01*
X008949Y007633D02*
X009704Y007633D01*
X009704Y007791D02*
X008768Y007791D01*
X008814Y007950D02*
X009704Y007950D01*
X009704Y008109D02*
X009001Y008109D01*
X009068Y008267D02*
X009704Y008267D01*
X009704Y008426D02*
X009079Y008426D01*
X009042Y008584D02*
X009704Y008584D01*
X009704Y008743D02*
X008938Y008743D01*
X008696Y008901D02*
X009704Y008901D01*
X009788Y009060D02*
X008952Y009060D01*
X009048Y009218D02*
X009947Y009218D01*
X010105Y009377D02*
X009079Y009377D01*
X009062Y009535D02*
X010264Y009535D01*
X010463Y009694D02*
X008986Y009694D01*
X008779Y009853D02*
X010860Y009853D01*
X010735Y010011D02*
X008903Y010011D01*
X009027Y010170D02*
X010611Y010170D01*
X010559Y010328D02*
X009079Y010328D01*
X009079Y010487D02*
X010559Y010487D01*
X010622Y010645D02*
X009016Y010645D01*
X009113Y010804D02*
X008876Y010804D01*
X008888Y010962D02*
X008844Y010962D01*
X009237Y011205D02*
X009237Y013477D01*
X008319Y014394D01*
X009040Y015114D01*
X009067Y015142D01*
X011402Y015142D01*
X011796Y015536D01*
X011796Y016126D01*
X012386Y016717D01*
X016717Y016717D01*
X017248Y017248D01*
X017248Y018406D01*
X017813Y018414D02*
X019220Y018414D01*
X019220Y018434D02*
X019220Y018377D01*
X019277Y018377D01*
X019277Y017901D01*
X019597Y017901D01*
X019626Y017909D01*
X019626Y009780D01*
X019599Y009791D01*
X018764Y009791D01*
X018675Y009755D01*
X018648Y009727D01*
X017862Y010512D01*
X018277Y010512D01*
X018365Y010549D01*
X018432Y010616D01*
X018469Y010704D01*
X018469Y011320D01*
X018432Y011408D01*
X018365Y011476D01*
X018277Y011512D01*
X017661Y011512D01*
X017573Y011476D01*
X017505Y011408D01*
X017469Y011320D01*
X017469Y010906D01*
X015709Y012665D01*
X015592Y012714D01*
X015464Y012714D01*
X013534Y012714D01*
X013678Y012858D01*
X013678Y013039D01*
X013202Y013039D01*
X013202Y013096D01*
X013678Y013096D01*
X013678Y013276D01*
X013430Y013525D01*
X013738Y013833D01*
X013738Y014301D01*
X013409Y014630D01*
X014389Y015609D01*
X014982Y015609D01*
X015227Y015365D01*
X015573Y015365D01*
X016200Y014738D01*
X016200Y013700D01*
X016249Y013583D01*
X016339Y013493D01*
X016546Y013286D01*
X016546Y013014D01*
X016877Y012684D01*
X017344Y012684D01*
X017589Y012928D01*
X017994Y012928D01*
X018239Y012684D01*
X018707Y012684D01*
X019038Y013014D01*
X019038Y013482D01*
X018707Y013813D01*
X018239Y013813D01*
X017994Y013568D01*
X017589Y013568D01*
X017344Y013813D01*
X016924Y013813D01*
X016840Y013897D01*
X016840Y014807D01*
X016840Y014934D01*
X016791Y015052D01*
X016026Y015817D01*
X016026Y016163D01*
X015792Y016397D01*
X016546Y016397D01*
X016546Y016014D01*
X016877Y015684D01*
X017344Y015684D01*
X017675Y016014D01*
X017675Y016482D01*
X017344Y016813D01*
X017266Y016813D01*
X017520Y017067D01*
X017568Y017185D01*
X017568Y017312D01*
X017568Y017841D01*
X017621Y017841D01*
X017709Y017878D01*
X017777Y017945D01*
X017813Y018033D01*
X017813Y018778D01*
X017777Y018867D01*
X017709Y018934D01*
X017621Y018971D01*
X016876Y018971D01*
X016788Y018934D01*
X016720Y018867D01*
X016687Y018787D01*
X016687Y018794D01*
X016651Y018882D01*
X016583Y018950D01*
X016495Y018986D01*
X015750Y018986D01*
X015662Y018950D01*
X015594Y018882D01*
X015558Y018794D01*
X015558Y018049D01*
X015594Y017961D01*
X015662Y017893D01*
X015750Y017857D01*
X016495Y017857D01*
X016583Y017893D01*
X016651Y017961D01*
X016684Y018040D01*
X016684Y018033D01*
X016720Y017945D01*
X016788Y017878D01*
X016876Y017841D01*
X016928Y017841D01*
X016928Y017381D01*
X016584Y017037D01*
X012450Y017037D01*
X012322Y017037D01*
X012205Y016988D01*
X011614Y016398D01*
X011524Y016308D01*
X011498Y016244D01*
X011461Y016281D01*
X011770Y016589D01*
X011770Y017057D01*
X011449Y017378D01*
X011737Y017378D01*
X011825Y017415D01*
X011893Y017482D01*
X011929Y017571D01*
X011929Y018186D01*
X011893Y018274D01*
X011825Y018342D01*
X011737Y018378D01*
X011122Y018378D01*
X011033Y018342D01*
X010966Y018274D01*
X010929Y018186D01*
X010929Y017571D01*
X010966Y017482D01*
X011033Y017415D01*
X011099Y017388D01*
X010971Y017388D01*
X010640Y017057D01*
X010640Y016589D01*
X010949Y016281D01*
X010700Y016032D01*
X010700Y015851D01*
X011176Y015851D01*
X011176Y015795D01*
X010700Y015795D01*
X010700Y015614D01*
X010852Y015462D01*
X009131Y015462D01*
X009004Y015462D01*
X008976Y015462D01*
X008858Y015413D01*
X008768Y015323D01*
X008749Y015276D01*
X008367Y014894D01*
X007960Y014894D01*
X007776Y014818D01*
X007672Y014714D01*
X001228Y014714D01*
X001187Y014755D01*
X001099Y014791D01*
X000421Y014791D01*
X000421Y019626D01*
X007698Y019626D01*
X007384Y019313D01*
X007384Y018845D01*
X007715Y018514D01*
X008183Y018514D01*
X008492Y018823D01*
X008740Y018574D01*
X008921Y018574D01*
X008921Y019051D01*
X008977Y019051D01*
X008977Y018574D01*
X009158Y018574D01*
X009454Y018870D01*
X009454Y019051D01*
X008978Y019051D01*
X008978Y019107D01*
X009454Y019107D01*
X009454Y019288D01*
X009158Y019584D01*
X008977Y019584D01*
X008977Y019108D01*
X008921Y019108D01*
X008921Y019584D01*
X008740Y019584D01*
X008492Y019335D01*
X008200Y019626D01*
X019626Y019626D01*
X019626Y018903D01*
X019597Y018911D01*
X019277Y018911D01*
X019277Y018434D01*
X019220Y018434D01*
X018744Y018434D01*
X018744Y018754D01*
X018756Y018800D01*
X018779Y018841D01*
X018813Y018875D01*
X018854Y018898D01*
X018900Y018911D01*
X019220Y018911D01*
X019220Y018434D01*
X019220Y018377D02*
X018744Y018377D01*
X018744Y018057D01*
X018756Y018012D01*
X018779Y017970D01*
X018813Y017937D01*
X018854Y017913D01*
X018900Y017901D01*
X019220Y017901D01*
X019220Y018377D01*
X019220Y018255D02*
X019277Y018255D01*
X019277Y018097D02*
X019220Y018097D01*
X019220Y017938D02*
X019277Y017938D01*
X019626Y017780D02*
X017568Y017780D01*
X017568Y017621D02*
X019626Y017621D01*
X019626Y017463D02*
X017568Y017463D01*
X017568Y017304D02*
X019626Y017304D01*
X019626Y017146D02*
X017552Y017146D01*
X017440Y016987D02*
X019626Y016987D01*
X019626Y016828D02*
X017281Y016828D01*
X017488Y016670D02*
X018096Y016670D01*
X018239Y016813D02*
X017908Y016482D01*
X017908Y016014D01*
X018239Y015684D01*
X018707Y015684D01*
X019038Y016014D01*
X019038Y016482D01*
X018707Y016813D01*
X018239Y016813D01*
X017937Y016511D02*
X017646Y016511D01*
X017675Y016353D02*
X017908Y016353D01*
X017908Y016194D02*
X017675Y016194D01*
X017675Y016036D02*
X017908Y016036D01*
X018045Y015877D02*
X017538Y015877D01*
X017380Y015719D02*
X018204Y015719D01*
X018742Y015719D02*
X019626Y015719D01*
X019626Y015877D02*
X018900Y015877D01*
X019038Y016036D02*
X019626Y016036D01*
X019626Y016194D02*
X019038Y016194D01*
X019038Y016353D02*
X019626Y016353D01*
X019626Y016511D02*
X019008Y016511D01*
X018850Y016670D02*
X019626Y016670D01*
X019626Y015560D02*
X016283Y015560D01*
X016441Y015402D02*
X019626Y015402D01*
X019626Y015243D02*
X016600Y015243D01*
X016758Y015084D02*
X019626Y015084D01*
X019626Y014926D02*
X016840Y014926D01*
X016840Y014767D02*
X019626Y014767D01*
X019626Y014609D02*
X016840Y014609D01*
X016840Y014450D02*
X019626Y014450D01*
X019626Y014292D02*
X016840Y014292D01*
X016840Y014133D02*
X019626Y014133D01*
X019626Y013975D02*
X016840Y013975D01*
X016920Y013816D02*
X019626Y013816D01*
X019626Y013658D02*
X018862Y013658D01*
X019021Y013499D02*
X019626Y013499D01*
X019626Y013341D02*
X019038Y013341D01*
X019038Y013182D02*
X019626Y013182D01*
X019626Y013023D02*
X019038Y013023D01*
X018888Y012865D02*
X019626Y012865D01*
X019626Y012706D02*
X018729Y012706D01*
X018216Y012706D02*
X017367Y012706D01*
X017526Y012865D02*
X018057Y012865D01*
X017969Y012452D02*
X017969Y012013D01*
X017969Y012013D01*
X017969Y012452D01*
X018151Y012452D01*
X018409Y012194D01*
X018409Y012012D01*
X017969Y012012D01*
X017969Y012012D01*
X018409Y012012D01*
X018409Y011830D01*
X018151Y011572D01*
X017969Y011572D01*
X017969Y012012D01*
X017969Y012012D01*
X017969Y011572D01*
X017787Y011572D01*
X017529Y011830D01*
X017529Y012012D01*
X017968Y012012D01*
X017968Y012012D01*
X017529Y012012D01*
X017529Y012194D01*
X017787Y012452D01*
X017969Y012452D01*
X017969Y012389D02*
X017969Y012389D01*
X017969Y012231D02*
X017969Y012231D01*
X017969Y012072D02*
X017969Y012072D01*
X017969Y011914D02*
X017969Y011914D01*
X017969Y011755D02*
X017969Y011755D01*
X017969Y011597D02*
X017969Y011597D01*
X018175Y011597D02*
X019626Y011597D01*
X019626Y011755D02*
X018334Y011755D01*
X018409Y011914D02*
X019626Y011914D01*
X019626Y012072D02*
X018409Y012072D01*
X018372Y012231D02*
X019626Y012231D01*
X019626Y012389D02*
X018214Y012389D01*
X017724Y012389D02*
X015985Y012389D01*
X016144Y012231D02*
X017565Y012231D01*
X017529Y012072D02*
X016302Y012072D01*
X016461Y011914D02*
X017529Y011914D01*
X017604Y011755D02*
X016619Y011755D01*
X016778Y011597D02*
X017762Y011597D01*
X017535Y011438D02*
X016936Y011438D01*
X017095Y011279D02*
X017469Y011279D01*
X017469Y011121D02*
X017254Y011121D01*
X017412Y010962D02*
X017469Y010962D01*
X017888Y010487D02*
X019626Y010487D01*
X019626Y010645D02*
X018444Y010645D01*
X018469Y010804D02*
X019626Y010804D01*
X019626Y010962D02*
X018469Y010962D01*
X018469Y011121D02*
X019626Y011121D01*
X019626Y011279D02*
X018469Y011279D01*
X018402Y011438D02*
X019626Y011438D01*
X019626Y012548D02*
X015827Y012548D01*
X015610Y012706D02*
X016854Y012706D01*
X016695Y012865D02*
X013678Y012865D01*
X013678Y013023D02*
X016546Y013023D01*
X016546Y013182D02*
X013678Y013182D01*
X013614Y013341D02*
X016491Y013341D01*
X016332Y013499D02*
X013456Y013499D01*
X013563Y013658D02*
X016218Y013658D01*
X016200Y013816D02*
X013721Y013816D01*
X013738Y013975D02*
X016200Y013975D01*
X016200Y014133D02*
X013738Y014133D01*
X013738Y014292D02*
X016200Y014292D01*
X016200Y014450D02*
X013589Y014450D01*
X013431Y014609D02*
X016200Y014609D01*
X016170Y014767D02*
X013547Y014767D01*
X013705Y014926D02*
X016012Y014926D01*
X015853Y015084D02*
X013864Y015084D01*
X014022Y015243D02*
X015695Y015243D01*
X016124Y015719D02*
X016841Y015719D01*
X016683Y015877D02*
X016026Y015877D01*
X016026Y016036D02*
X016546Y016036D01*
X016546Y016194D02*
X015995Y016194D01*
X015836Y016353D02*
X016546Y016353D01*
X016693Y017146D02*
X011681Y017146D01*
X011770Y016987D02*
X012204Y016987D01*
X012045Y016828D02*
X011770Y016828D01*
X011770Y016670D02*
X011887Y016670D01*
X011728Y016511D02*
X011692Y016511D01*
X011614Y016398D02*
X011614Y016398D01*
X011570Y016353D02*
X011533Y016353D01*
X010877Y016353D02*
X009548Y016353D01*
X009539Y016371D02*
X009492Y016436D01*
X009436Y016492D01*
X009371Y016539D01*
X009365Y016542D01*
X009479Y016542D01*
X009568Y016578D01*
X009635Y016646D01*
X009672Y016734D01*
X009672Y017479D01*
X009635Y017568D01*
X009568Y017635D01*
X009479Y017672D01*
X008734Y017672D01*
X008646Y017635D01*
X008578Y017568D01*
X008542Y017479D01*
X008542Y016734D01*
X008578Y016646D01*
X008646Y016578D01*
X008734Y016542D01*
X008848Y016542D01*
X008842Y016539D01*
X008778Y016492D01*
X008721Y016436D01*
X008675Y016371D01*
X008639Y016300D01*
X008614Y016225D01*
X008602Y016146D01*
X008602Y016135D01*
X009078Y016135D01*
X009078Y016078D01*
X008602Y016078D01*
X008602Y016067D01*
X008614Y015988D01*
X008639Y015913D01*
X008675Y015842D01*
X008721Y015778D01*
X008778Y015721D01*
X008842Y015675D01*
X008913Y015639D01*
X008988Y015614D01*
X009067Y015602D01*
X009078Y015602D01*
X009078Y016078D01*
X009135Y016078D01*
X009135Y015602D01*
X009146Y015602D01*
X009225Y015614D01*
X009300Y015639D01*
X009371Y015675D01*
X009436Y015721D01*
X009492Y015778D01*
X009539Y015842D01*
X009575Y015913D01*
X009599Y015988D01*
X009612Y016067D01*
X009612Y016078D01*
X009135Y016078D01*
X009135Y016135D01*
X009612Y016135D01*
X009612Y016146D01*
X009599Y016225D01*
X009575Y016300D01*
X009539Y016371D01*
X009604Y016194D02*
X010862Y016194D01*
X010704Y016036D02*
X009607Y016036D01*
X009556Y015877D02*
X010700Y015877D01*
X010700Y015719D02*
X009432Y015719D01*
X009135Y015719D02*
X009078Y015719D01*
X009078Y015877D02*
X009135Y015877D01*
X009135Y016036D02*
X009078Y016036D01*
X008781Y015719D02*
X005148Y015719D01*
X005306Y015877D02*
X008657Y015877D01*
X008607Y016036D02*
X005465Y016036D01*
X005481Y016052D02*
X005571Y016142D01*
X005619Y016259D01*
X005619Y016278D01*
X005630Y016271D01*
X005697Y016237D01*
X005769Y016213D01*
X005844Y016201D01*
X006161Y016201D01*
X006161Y016661D01*
X006201Y016661D01*
X006201Y016201D01*
X006519Y016201D01*
X006594Y016213D01*
X006666Y016237D01*
X006733Y016271D01*
X006794Y016315D01*
X006848Y016369D01*
X006892Y016430D01*
X006926Y016497D01*
X006950Y016569D01*
X006961Y016644D01*
X006961Y016661D01*
X006202Y016661D01*
X006202Y016701D01*
X006961Y016701D01*
X006961Y016719D01*
X006950Y016794D01*
X006926Y016866D01*
X006892Y016933D01*
X006848Y016994D01*
X006794Y017048D01*
X006733Y017092D01*
X006666Y017126D01*
X006602Y017147D01*
X006787Y017224D01*
X006939Y017376D01*
X007021Y017574D01*
X007021Y017789D01*
X006939Y017987D01*
X006787Y018139D01*
X006685Y018181D01*
X006787Y018224D01*
X006939Y018376D01*
X007021Y018574D01*
X007021Y018789D01*
X006939Y018987D01*
X006787Y019139D01*
X006589Y019221D01*
X005774Y019221D01*
X005576Y019139D01*
X005424Y018987D01*
X005341Y018789D01*
X005341Y018574D01*
X005423Y018376D01*
X005176Y018128D01*
X005085Y018348D01*
X004860Y018573D01*
X004565Y018695D01*
X004246Y018695D01*
X003952Y018573D01*
X003727Y018348D01*
X003605Y018053D01*
X003605Y017735D01*
X003727Y017440D01*
X003952Y017215D01*
X004246Y017093D01*
X004565Y017093D01*
X004860Y017215D01*
X004980Y017335D01*
X004980Y016456D01*
X004638Y016114D01*
X004022Y016114D01*
X003921Y016216D01*
X003805Y016264D01*
X003826Y016315D01*
X003826Y016513D01*
X003751Y016696D01*
X003611Y016836D01*
X003428Y016911D01*
X003230Y016911D01*
X003047Y016836D01*
X002984Y016772D01*
X002921Y016836D01*
X002738Y016911D01*
X002540Y016911D01*
X002357Y016836D01*
X002217Y016696D01*
X002141Y016513D01*
X002141Y016315D01*
X002180Y016223D01*
X002166Y016221D01*
X002101Y016199D01*
X002040Y016168D01*
X001984Y016128D01*
X001935Y016079D01*
X001895Y016023D01*
X001863Y015962D01*
X001842Y015896D01*
X001831Y015828D01*
X001831Y015794D01*
X002268Y015794D01*
X002268Y015794D01*
X001831Y015794D01*
X001831Y015760D01*
X001842Y015692D01*
X001863Y015626D01*
X001895Y015565D01*
X001935Y015509D01*
X001984Y015460D01*
X002040Y015420D01*
X002101Y015389D01*
X002166Y015367D01*
X002234Y015357D01*
X002269Y015357D01*
X002303Y015357D01*
X002371Y015367D01*
X002437Y015389D01*
X002498Y015420D01*
X002554Y015460D01*
X002576Y015483D01*
X002687Y015372D01*
X002870Y015297D01*
X003068Y015297D01*
X003251Y015372D01*
X003304Y015426D01*
X003357Y015372D01*
X003540Y015297D01*
X003738Y015297D01*
X003921Y015372D01*
X004022Y015474D01*
X004707Y015474D01*
X004834Y015474D01*
X004952Y015523D01*
X005481Y016052D01*
X005592Y016194D02*
X008609Y016194D01*
X008665Y016353D02*
X006832Y016353D01*
X006931Y016511D02*
X008805Y016511D01*
X008568Y016670D02*
X006202Y016670D01*
X006201Y016511D02*
X006161Y016511D01*
X006161Y016353D02*
X006201Y016353D01*
X006938Y016828D02*
X008542Y016828D01*
X008542Y016987D02*
X006853Y016987D01*
X006606Y017146D02*
X008542Y017146D01*
X008542Y017304D02*
X006868Y017304D01*
X006975Y017463D02*
X008542Y017463D01*
X008632Y017621D02*
X007021Y017621D01*
X007021Y017780D02*
X010929Y017780D01*
X010929Y017938D02*
X006959Y017938D01*
X006830Y018097D02*
X010929Y018097D01*
X010958Y018255D02*
X006819Y018255D01*
X006955Y018414D02*
X014094Y018414D01*
X014094Y018393D02*
X013618Y018393D01*
X013618Y018073D01*
X013630Y018027D01*
X013654Y017986D01*
X013687Y017953D01*
X013728Y017929D01*
X013774Y017917D01*
X014094Y017917D01*
X014094Y018393D01*
X014151Y018393D01*
X014151Y018450D01*
X014627Y018450D01*
X014627Y018770D01*
X014615Y018816D01*
X014591Y018857D01*
X014558Y018890D01*
X014517Y018914D01*
X014471Y018926D01*
X014151Y018926D01*
X014151Y018450D01*
X014094Y018450D01*
X014094Y018926D01*
X013774Y018926D01*
X013728Y018914D01*
X013687Y018890D01*
X013654Y018857D01*
X013630Y018816D01*
X013618Y018770D01*
X013618Y018450D01*
X014094Y018450D01*
X014094Y018393D01*
X014151Y018393D02*
X014151Y017917D01*
X014471Y017917D01*
X014517Y017929D01*
X014558Y017953D01*
X014591Y017986D01*
X014615Y018027D01*
X014627Y018073D01*
X014627Y018393D01*
X014151Y018393D01*
X014151Y018414D02*
X015558Y018414D01*
X015558Y018572D02*
X014627Y018572D01*
X014627Y018731D02*
X015558Y018731D01*
X015601Y018890D02*
X014559Y018890D01*
X014151Y018890D02*
X014094Y018890D01*
X014094Y018731D02*
X014151Y018731D01*
X014151Y018572D02*
X014094Y018572D01*
X014094Y018255D02*
X014151Y018255D01*
X014151Y018097D02*
X014094Y018097D01*
X014094Y017938D02*
X014151Y017938D01*
X014533Y017938D02*
X015617Y017938D01*
X015558Y018097D02*
X014627Y018097D01*
X014627Y018255D02*
X015558Y018255D01*
X016628Y017938D02*
X016727Y017938D01*
X016928Y017780D02*
X011929Y017780D01*
X011929Y017938D02*
X013712Y017938D01*
X013618Y018097D02*
X011929Y018097D01*
X011901Y018255D02*
X013618Y018255D01*
X013618Y018572D02*
X011746Y018572D01*
X011869Y018696D02*
X011612Y018438D01*
X011430Y018438D01*
X011430Y018878D01*
X011430Y018878D01*
X011869Y018878D01*
X011869Y018696D01*
X011869Y018731D02*
X013618Y018731D01*
X013686Y018890D02*
X011869Y018890D01*
X011869Y018878D02*
X011869Y019060D01*
X011612Y019318D01*
X011430Y019318D01*
X011430Y018879D01*
X011429Y018879D01*
X011429Y019318D01*
X011247Y019318D01*
X010989Y019060D01*
X010989Y018878D01*
X010989Y018696D01*
X011247Y018438D01*
X011429Y018438D01*
X011429Y018878D01*
X010989Y018878D01*
X011429Y018878D01*
X011429Y018878D01*
X011430Y018878D01*
X011869Y018878D01*
X011869Y019048D02*
X019626Y019048D01*
X019626Y019207D02*
X011723Y019207D01*
X011430Y019207D02*
X011429Y019207D01*
X011429Y019048D02*
X011430Y019048D01*
X011429Y018890D02*
X011430Y018890D01*
X011429Y018731D02*
X011430Y018731D01*
X011429Y018572D02*
X011430Y018572D01*
X011113Y018572D02*
X008241Y018572D01*
X008400Y018731D02*
X008583Y018731D01*
X008921Y018731D02*
X008977Y018731D01*
X008977Y018890D02*
X008921Y018890D01*
X008921Y019048D02*
X008977Y019048D01*
X008977Y019207D02*
X008921Y019207D01*
X008921Y019365D02*
X008977Y019365D01*
X008977Y019524D02*
X008921Y019524D01*
X008680Y019524D02*
X008303Y019524D01*
X008462Y019365D02*
X008521Y019365D01*
X009218Y019524D02*
X019626Y019524D01*
X019626Y019365D02*
X009377Y019365D01*
X009454Y019207D02*
X011136Y019207D01*
X010989Y019048D02*
X009454Y019048D01*
X009454Y018890D02*
X010989Y018890D01*
X010989Y018731D02*
X009315Y018731D01*
X009581Y017621D02*
X010929Y017621D01*
X010986Y017463D02*
X009672Y017463D01*
X009672Y017304D02*
X010887Y017304D01*
X010729Y017146D02*
X009672Y017146D01*
X009672Y016987D02*
X010640Y016987D01*
X010640Y016828D02*
X009672Y016828D01*
X009645Y016670D02*
X010640Y016670D01*
X010718Y016511D02*
X009409Y016511D01*
X008847Y015402D02*
X003950Y015402D01*
X003639Y015794D02*
X004770Y015794D01*
X005300Y016323D01*
X005300Y017800D01*
X006181Y018681D01*
X005738Y019207D02*
X000421Y019207D01*
X000421Y019365D02*
X007437Y019365D01*
X007384Y019207D02*
X006624Y019207D01*
X006878Y019048D02*
X007384Y019048D01*
X007384Y018890D02*
X006980Y018890D01*
X007021Y018731D02*
X007498Y018731D01*
X007657Y018572D02*
X007021Y018572D01*
X007595Y019524D02*
X000421Y019524D01*
X000421Y019048D02*
X005484Y019048D01*
X005383Y018890D02*
X000421Y018890D01*
X000421Y018731D02*
X005341Y018731D01*
X005342Y018572D02*
X004860Y018572D01*
X005019Y018414D02*
X005408Y018414D01*
X005303Y018255D02*
X005123Y018255D01*
X004980Y017304D02*
X004949Y017304D01*
X004980Y017146D02*
X004692Y017146D01*
X004980Y016987D02*
X000421Y016987D01*
X000421Y016828D02*
X002350Y016828D01*
X002206Y016670D02*
X000421Y016670D01*
X000421Y016511D02*
X002141Y016511D01*
X002141Y016353D02*
X000421Y016353D01*
X000421Y016194D02*
X002091Y016194D01*
X001904Y016036D02*
X000421Y016036D01*
X000421Y015877D02*
X001839Y015877D01*
X001838Y015719D02*
X000421Y015719D01*
X000421Y015560D02*
X001898Y015560D01*
X002075Y015402D02*
X000421Y015402D01*
X000421Y015243D02*
X008716Y015243D01*
X008557Y015084D02*
X000421Y015084D01*
X000421Y014926D02*
X008399Y014926D01*
X008319Y014394D02*
X000894Y014394D01*
X000681Y014181D01*
X001157Y014767D02*
X007726Y014767D01*
X009031Y014609D02*
X010607Y014609D01*
X010559Y014450D02*
X009079Y014450D01*
X009078Y014292D02*
X010560Y014292D01*
X010626Y014133D02*
X009033Y014133D01*
X009191Y013975D02*
X010771Y013975D01*
X010935Y013816D02*
X009350Y013816D01*
X009508Y013658D02*
X010707Y013658D01*
X010631Y013499D02*
X009556Y013499D01*
X009556Y013341D02*
X010622Y013341D01*
X010673Y013182D02*
X009556Y013182D01*
X009556Y013023D02*
X010821Y013023D01*
X010889Y012865D02*
X009556Y012865D01*
X009556Y012706D02*
X010664Y012706D01*
X010582Y012548D02*
X009556Y012548D01*
X009556Y012389D02*
X010559Y012389D01*
X010586Y012231D02*
X009556Y012231D01*
X009556Y012072D02*
X010674Y012072D01*
X010912Y011914D02*
X009556Y011914D01*
X009556Y011755D02*
X010713Y011755D01*
X010602Y011597D02*
X009556Y011597D01*
X009593Y011438D02*
X010559Y011438D01*
X010565Y011279D02*
X009655Y011279D01*
X009654Y011121D02*
X010631Y011121D01*
X010795Y010962D02*
X009585Y010962D01*
X009360Y010804D02*
X010762Y010804D01*
X011319Y010394D02*
X013937Y010394D01*
X014355Y010811D01*
X015142Y010811D01*
X018685Y007268D01*
X019095Y007268D01*
X019181Y007181D01*
X018818Y006682D02*
X016037Y006682D01*
X015400Y006840D02*
X018662Y006840D01*
X018502Y006999D02*
X015400Y006999D01*
X015400Y007157D02*
X018343Y007157D01*
X018185Y007316D02*
X015334Y007316D01*
X015175Y007474D02*
X018026Y007474D01*
X017868Y007633D02*
X012021Y007633D01*
X012079Y007474D02*
X014495Y007474D01*
X014336Y007316D02*
X012079Y007316D01*
X012022Y007157D02*
X014270Y007157D01*
X014270Y006999D02*
X011891Y006999D01*
X011808Y006840D02*
X014270Y006840D01*
X014548Y006394D02*
X015536Y006193D01*
X014971Y005889D02*
X010344Y005889D01*
X011319Y005834D02*
X011319Y005394D01*
X011319Y005394D01*
X011319Y005394D01*
X011319Y004954D01*
X011614Y004954D01*
X011682Y004965D01*
X011748Y004986D01*
X011810Y005018D01*
X011866Y005058D01*
X011915Y005107D01*
X011956Y005163D01*
X011987Y005225D01*
X012008Y005291D01*
X012019Y005359D01*
X012019Y005394D01*
X012019Y005429D01*
X012008Y005497D01*
X011987Y005563D01*
X011956Y005625D01*
X011915Y005681D01*
X011866Y005730D01*
X011810Y005770D01*
X011748Y005802D01*
X011682Y005823D01*
X011614Y005834D01*
X011319Y005834D01*
X011319Y005730D02*
X011319Y005730D01*
X011319Y005572D02*
X011319Y005572D01*
X011319Y005413D02*
X011319Y005413D01*
X011320Y005394D02*
X012019Y005394D01*
X011320Y005394D01*
X011320Y005394D01*
X011319Y005255D02*
X011319Y005255D01*
X011319Y005096D02*
X011319Y005096D01*
X011904Y005096D02*
X015040Y005096D01*
X015034Y005255D02*
X011997Y005255D01*
X012019Y005413D02*
X015081Y005413D01*
X015200Y005572D02*
X011982Y005572D01*
X011865Y005730D02*
X015009Y005730D01*
X014646Y006048D02*
X011940Y006048D01*
X011319Y006394D02*
X014548Y006394D01*
X012594Y004779D02*
X011901Y004779D01*
X011319Y004394D02*
X012662Y004394D01*
X011927Y003035D02*
X018582Y003035D01*
X018647Y002877D02*
X011721Y002877D01*
X011962Y002718D02*
X018782Y002718D01*
X018782Y002560D02*
X012052Y002560D01*
X011319Y003394D02*
X018394Y003394D01*
X019181Y004181D01*
X017709Y007791D02*
X011889Y007791D01*
X011814Y007950D02*
X017551Y007950D01*
X017392Y008109D02*
X012001Y008109D01*
X012068Y008267D02*
X017234Y008267D01*
X017075Y008426D02*
X012079Y008426D01*
X012042Y008584D02*
X016917Y008584D01*
X016758Y008743D02*
X011938Y008743D01*
X011696Y008901D02*
X016599Y008901D01*
X016441Y009060D02*
X011952Y009060D01*
X012048Y009218D02*
X016282Y009218D01*
X016124Y009377D02*
X012079Y009377D01*
X012062Y009535D02*
X014517Y009535D01*
X014358Y009694D02*
X011986Y009694D01*
X011779Y009853D02*
X014270Y009853D01*
X014270Y010011D02*
X011903Y010011D01*
X011319Y009394D02*
X010575Y009394D01*
X011876Y010804D02*
X013895Y010804D01*
X014053Y010962D02*
X011844Y010962D01*
X011319Y011394D02*
X015347Y011394D01*
X018292Y008449D01*
X018914Y008449D01*
X019181Y008181D01*
X018571Y008901D02*
X018292Y008901D01*
X018409Y009060D02*
X018133Y009060D01*
X018251Y009218D02*
X017975Y009218D01*
X018092Y009377D02*
X017816Y009377D01*
X017934Y009535D02*
X017658Y009535D01*
X017775Y009694D02*
X017499Y009694D01*
X017617Y009853D02*
X017341Y009853D01*
X017458Y010011D02*
X017182Y010011D01*
X017300Y010170D02*
X017024Y010170D01*
X017141Y010328D02*
X016865Y010328D01*
X016983Y010487D02*
X016707Y010487D01*
X016824Y010645D02*
X016548Y010645D01*
X016665Y010804D02*
X016389Y010804D01*
X016507Y010962D02*
X016231Y010962D01*
X016348Y011121D02*
X016072Y011121D01*
X016190Y011279D02*
X015914Y011279D01*
X016031Y011438D02*
X015755Y011438D01*
X015873Y011597D02*
X015597Y011597D01*
X015714Y011755D02*
X011925Y011755D01*
X011726Y011914D02*
X015556Y011914D01*
X015397Y012072D02*
X011964Y012072D01*
X011319Y012394D02*
X015528Y012394D01*
X018685Y009237D01*
X019126Y009237D01*
X019181Y009181D01*
X019626Y009853D02*
X018522Y009853D01*
X018363Y010011D02*
X019626Y010011D01*
X019626Y010170D02*
X018205Y010170D01*
X018046Y010328D02*
X019626Y010328D01*
X018473Y013248D02*
X017111Y013248D01*
X017036Y013248D01*
X016520Y013764D01*
X016520Y014870D01*
X015461Y015929D01*
X014256Y015929D01*
X012386Y014059D01*
X012386Y014067D01*
X013174Y014067D01*
X012784Y013658D02*
X012509Y013658D01*
X012264Y013658D02*
X011932Y013658D01*
X012008Y013499D02*
X012892Y013499D01*
X012733Y013341D02*
X012016Y013341D01*
X011965Y013182D02*
X012669Y013182D01*
X012669Y013023D02*
X011818Y013023D01*
X011749Y012865D02*
X012669Y012865D01*
X012386Y014067D02*
X011646Y014067D01*
X011319Y014394D01*
X011319Y013816D02*
X011319Y013816D01*
X011319Y013658D02*
X011319Y013658D01*
X011319Y013499D02*
X011319Y013499D01*
X011319Y013341D02*
X011319Y013341D01*
X011319Y013182D02*
X011319Y013182D01*
X011319Y013023D02*
X011319Y013023D01*
X010726Y014767D02*
X009145Y014767D01*
X009040Y015114D02*
X009040Y015142D01*
X010754Y015560D02*
X004989Y015560D01*
X004718Y016194D02*
X003942Y016194D01*
X003826Y016353D02*
X004877Y016353D01*
X004980Y016511D02*
X003826Y016511D01*
X003761Y016670D02*
X004980Y016670D01*
X004980Y016828D02*
X003618Y016828D01*
X004120Y017146D02*
X001818Y017146D01*
X001691Y017093D02*
X001986Y017215D01*
X002211Y017440D01*
X002333Y017735D01*
X002333Y018053D01*
X002211Y018348D01*
X001986Y018573D01*
X001691Y018695D01*
X001372Y018695D01*
X001078Y018573D01*
X000853Y018348D01*
X000731Y018053D01*
X000731Y017735D01*
X000853Y017440D01*
X001078Y017215D01*
X001372Y017093D01*
X001691Y017093D01*
X002075Y017304D02*
X003863Y017304D01*
X003717Y017463D02*
X002220Y017463D01*
X002286Y017621D02*
X003652Y017621D01*
X003605Y017780D02*
X002333Y017780D01*
X002333Y017938D02*
X003605Y017938D01*
X003623Y018097D02*
X002315Y018097D01*
X002249Y018255D02*
X003688Y018255D01*
X003793Y018414D02*
X002145Y018414D01*
X001986Y018572D02*
X003951Y018572D01*
X003040Y016828D02*
X002928Y016828D01*
X002269Y015794D02*
X002269Y015357D01*
X002269Y015794D01*
X002269Y015794D01*
X002269Y015719D02*
X002269Y015719D01*
X002269Y015560D02*
X002269Y015560D01*
X002269Y015402D02*
X002269Y015402D01*
X002462Y015402D02*
X002658Y015402D01*
X003280Y015402D02*
X003328Y015402D01*
X001246Y017146D02*
X000421Y017146D01*
X000421Y017304D02*
X000989Y017304D01*
X000843Y017463D02*
X000421Y017463D01*
X000421Y017621D02*
X000778Y017621D01*
X000731Y017780D02*
X000421Y017780D01*
X000421Y017938D02*
X000731Y017938D01*
X000749Y018097D02*
X000421Y018097D01*
X000421Y018255D02*
X000814Y018255D01*
X000919Y018414D02*
X000421Y018414D01*
X000421Y018572D02*
X001077Y018572D01*
X000894Y013394D02*
X000681Y013181D01*
X000894Y013394D02*
X008319Y013394D01*
X008319Y012394D02*
X000894Y012394D01*
X000681Y012181D01*
X000902Y011402D02*
X004118Y011402D01*
X005151Y010328D02*
X000421Y010328D01*
X000421Y010170D02*
X004993Y010170D01*
X004834Y010011D02*
X000421Y010011D01*
X000421Y009853D02*
X004676Y009853D01*
X004517Y009694D02*
X001248Y009694D01*
X000737Y009237D02*
X000681Y009181D01*
X000737Y009237D02*
X002150Y009237D01*
X004512Y009237D01*
X005670Y010394D01*
X008319Y010394D01*
X007860Y009853D02*
X005581Y009853D01*
X005739Y010011D02*
X007735Y010011D01*
X008319Y009394D02*
X005851Y009394D01*
X004512Y008055D01*
X000807Y008055D01*
X000681Y008181D01*
X001141Y008584D02*
X004588Y008584D01*
X004430Y008426D02*
X001240Y008426D01*
X001283Y008743D02*
X004747Y008743D01*
X004905Y008901D02*
X002406Y008901D01*
X001894Y008901D02*
X001291Y008901D01*
X001092Y007633D02*
X004818Y007633D01*
X004701Y007791D02*
X004977Y007791D01*
X004859Y007950D02*
X005135Y007950D01*
X005018Y008109D02*
X005294Y008109D01*
X005176Y008267D02*
X005452Y008267D01*
X005335Y008426D02*
X005611Y008426D01*
X005493Y008584D02*
X005769Y008584D01*
X005652Y008743D02*
X005960Y008743D01*
X005811Y008901D02*
X007942Y008901D01*
X007686Y009060D02*
X005969Y009060D01*
X005540Y009535D02*
X005264Y009535D01*
X005381Y009377D02*
X005105Y009377D01*
X005223Y009218D02*
X004947Y009218D01*
X005064Y009060D02*
X004788Y009060D01*
X005422Y009694D02*
X005739Y009694D01*
X005310Y010487D02*
X000421Y010487D01*
X000981Y010645D02*
X005468Y010645D01*
X006087Y008449D02*
X008264Y008449D01*
X008319Y008394D01*
X007824Y007950D02*
X006799Y007950D01*
X006876Y007791D02*
X007870Y007791D01*
X007689Y007633D02*
X006876Y007633D01*
X006876Y007474D02*
X007626Y007474D01*
X007626Y007316D02*
X006876Y007316D01*
X006876Y007157D02*
X007687Y007157D01*
X007866Y006999D02*
X006844Y006999D01*
X006805Y006840D02*
X007830Y006840D01*
X007640Y006682D02*
X006816Y006682D01*
X006816Y006523D02*
X007572Y006523D01*
X007559Y006365D02*
X006816Y006365D01*
X006816Y006206D02*
X007596Y006206D01*
X007699Y006048D02*
X006800Y006048D01*
X006848Y005889D02*
X007948Y005889D01*
X007689Y005730D02*
X006876Y005730D01*
X006876Y005572D02*
X007592Y005572D01*
X007559Y005413D02*
X006876Y005413D01*
X006876Y005255D02*
X007576Y005255D01*
X007650Y005096D02*
X006876Y005096D01*
X006789Y004938D02*
X007854Y004938D01*
X008323Y005390D02*
X008319Y005394D01*
X008319Y006999D02*
X008319Y006999D01*
X008319Y007157D02*
X008319Y007157D01*
X008319Y007316D02*
X008319Y007316D01*
X008319Y007474D02*
X008319Y007474D01*
X008319Y007633D02*
X008319Y007633D01*
X008319Y007791D02*
X008319Y007791D01*
X007638Y008109D02*
X006199Y008109D01*
X006087Y008449D02*
X004819Y007181D01*
X000681Y007181D01*
X001044Y006682D02*
X005807Y006682D01*
X005818Y006840D02*
X001200Y006840D01*
X001166Y010804D02*
X007762Y010804D01*
X007795Y010962D02*
X001251Y010962D01*
X000894Y011394D02*
X000902Y011402D01*
X000894Y011394D02*
X000681Y011181D01*
X000894Y011394D02*
X008319Y011394D01*
X005747Y007633D02*
X005723Y007633D01*
X005747Y007474D02*
X005565Y007474D01*
X005406Y007316D02*
X005747Y007316D01*
X005747Y007157D02*
X005248Y007157D01*
X005089Y006999D02*
X005779Y006999D01*
X009571Y003194D02*
X010601Y003194D01*
X010559Y003352D02*
X009730Y003352D01*
X009889Y003511D02*
X010566Y003511D01*
X010632Y003669D02*
X010047Y003669D01*
X010206Y003828D02*
X010800Y003828D01*
X010760Y003986D02*
X010324Y003986D01*
X010344Y004145D02*
X010621Y004145D01*
X010559Y004304D02*
X010344Y004304D01*
X010344Y004462D02*
X010559Y004462D01*
X010612Y004621D02*
X010344Y004621D01*
X010344Y004779D02*
X010737Y004779D01*
X010711Y003035D02*
X009413Y003035D01*
X009254Y002877D02*
X010918Y002877D01*
X010676Y002718D02*
X009096Y002718D01*
X009052Y002560D02*
X010587Y002560D01*
X010559Y002401D02*
X009079Y002401D01*
X009058Y002242D02*
X010581Y002242D01*
X010662Y002084D02*
X008976Y002084D01*
X011319Y001394D02*
X011370Y001394D01*
X012189Y000378D01*
X015153Y009535D02*
X015965Y009535D01*
X015807Y009694D02*
X015312Y009694D01*
X015400Y009853D02*
X015648Y009853D01*
X015490Y010011D02*
X015400Y010011D01*
X014507Y010487D02*
X014483Y010487D01*
X014348Y010328D02*
X014324Y010328D01*
X014270Y010170D02*
X014166Y010170D01*
X017500Y013658D02*
X018083Y013658D01*
X015190Y015402D02*
X014181Y015402D01*
X014339Y015560D02*
X015032Y015560D01*
X016852Y017304D02*
X011523Y017304D01*
X011873Y017463D02*
X016928Y017463D01*
X016928Y017621D02*
X011929Y017621D01*
X016643Y018890D02*
X016743Y018890D01*
X017754Y018890D02*
X018839Y018890D01*
X018744Y018731D02*
X017813Y018731D01*
X017813Y018572D02*
X018744Y018572D01*
X018744Y018255D02*
X017813Y018255D01*
X017813Y018097D02*
X018744Y018097D01*
X018812Y017938D02*
X017770Y017938D01*
X019220Y018572D02*
X019277Y018572D01*
X019277Y018731D02*
X019220Y018731D01*
X019220Y018890D02*
X019277Y018890D01*
D24*
X012386Y014059D03*
X009237Y011205D03*
X004118Y011402D03*
X002150Y009237D03*
X015142Y010811D03*
D25*
X008323Y005390D03*
M02*
