G75*
G70*
%OFA0B0*%
%FSLAX24Y24*%
%IPPOS*%
%LPD*%
%AMOC8*
5,1,8,0,0,1.08239X$1,22.5*
%
%ADD10C,0.0000*%
%ADD11C,0.0030*%
%ADD12C,0.0080*%
%ADD13C,0.0040*%
%ADD14C,0.0200*%
%ADD15C,0.0060*%
%ADD16R,0.0500X0.0750*%
%ADD17R,0.0300X0.0700*%
%ADD18R,0.0500X0.0300*%
%ADD19C,0.0070*%
%ADD20C,0.0050*%
%ADD21C,0.0240*%
%ADD22C,0.0250*%
%ADD23C,0.0100*%
D10*
X000181Y000181D02*
X019866Y000181D01*
X019866Y019866D01*
X000181Y019866D01*
X000181Y000181D01*
D11*
X001446Y000995D02*
X001495Y000946D01*
X001592Y000946D01*
X001640Y000995D01*
X001640Y001043D01*
X001592Y001092D01*
X001543Y001092D01*
X001592Y001092D02*
X001640Y001140D01*
X001640Y001188D01*
X001592Y001237D01*
X001495Y001237D01*
X001446Y001188D01*
X001741Y000995D02*
X001789Y000995D01*
X001789Y000946D01*
X001741Y000946D01*
X001741Y000995D01*
X001888Y000995D02*
X001937Y000946D01*
X002034Y000946D01*
X002082Y000995D01*
X002082Y001043D01*
X002034Y001092D01*
X001985Y001092D01*
X002034Y001092D02*
X002082Y001140D01*
X002082Y001188D01*
X002034Y001237D01*
X001937Y001237D01*
X001888Y001188D01*
X002183Y001237D02*
X002183Y001043D01*
X002280Y000946D01*
X002376Y001043D01*
X002376Y001237D01*
X002181Y001946D02*
X002229Y001995D01*
X002229Y002188D01*
X002181Y002237D01*
X002036Y002237D01*
X002036Y001946D01*
X002181Y001946D01*
X001935Y001946D02*
X001935Y002237D01*
X001741Y002237D02*
X001935Y001946D01*
X001741Y001946D02*
X001741Y002237D01*
X001640Y002188D02*
X001592Y002237D01*
X001495Y002237D01*
X001446Y002188D01*
X001446Y001995D01*
X001495Y001946D01*
X001592Y001946D01*
X001640Y001995D01*
X001640Y002092D01*
X001543Y002092D01*
X001592Y002946D02*
X001446Y002946D01*
X001446Y003237D01*
X001592Y003237D01*
X001640Y003188D01*
X001640Y003140D01*
X001592Y003092D01*
X001446Y003092D01*
X001592Y003092D02*
X001640Y003043D01*
X001640Y002995D01*
X001592Y002946D01*
X001741Y002995D02*
X001789Y002946D01*
X001886Y002946D01*
X001935Y002995D01*
X001935Y003092D01*
X001886Y003140D01*
X001838Y003140D01*
X001741Y003092D01*
X001741Y003237D01*
X001935Y003237D01*
X001886Y003946D02*
X001886Y004237D01*
X001741Y004092D01*
X001935Y004092D01*
X001640Y004092D02*
X001446Y004092D01*
X001446Y004140D02*
X001543Y004237D01*
X001640Y004140D01*
X001640Y003946D01*
X001446Y003946D02*
X001446Y004140D01*
X001446Y005946D02*
X001592Y005946D01*
X001640Y005995D01*
X001640Y006043D01*
X001592Y006092D01*
X001446Y006092D01*
X001446Y006237D02*
X001446Y005946D01*
X001592Y006092D02*
X001640Y006140D01*
X001640Y006188D01*
X001592Y006237D01*
X001446Y006237D01*
X001741Y006092D02*
X001935Y006092D01*
X001886Y006237D02*
X001886Y005946D01*
X001741Y006092D02*
X001886Y006237D01*
X001886Y006946D02*
X001789Y006946D01*
X001741Y006995D01*
X001640Y006995D02*
X001592Y006946D01*
X001446Y006946D01*
X001446Y007237D01*
X001592Y007237D01*
X001640Y007188D01*
X001640Y007140D01*
X001592Y007092D01*
X001446Y007092D01*
X001592Y007092D02*
X001640Y007043D01*
X001640Y006995D01*
X001741Y007188D02*
X001789Y007237D01*
X001886Y007237D01*
X001935Y007188D01*
X001935Y007140D01*
X001886Y007092D01*
X001935Y007043D01*
X001935Y006995D01*
X001886Y006946D01*
X001886Y007092D02*
X001838Y007092D01*
X001935Y007946D02*
X001741Y007946D01*
X001935Y008140D01*
X001935Y008188D01*
X001886Y008237D01*
X001789Y008237D01*
X001741Y008188D01*
X001640Y008188D02*
X001640Y008140D01*
X001592Y008092D01*
X001446Y008092D01*
X001446Y008237D02*
X001446Y007946D01*
X001592Y007946D01*
X001640Y007995D01*
X001640Y008043D01*
X001592Y008092D01*
X001640Y008188D02*
X001592Y008237D01*
X001446Y008237D01*
X001446Y008946D02*
X001592Y008946D01*
X001640Y008995D01*
X001640Y009043D01*
X001592Y009092D01*
X001446Y009092D01*
X001446Y009237D02*
X001446Y008946D01*
X001592Y009092D02*
X001640Y009140D01*
X001640Y009188D01*
X001592Y009237D01*
X001446Y009237D01*
X001741Y009140D02*
X001838Y009237D01*
X001838Y008946D01*
X001741Y008946D02*
X001935Y008946D01*
X001935Y011946D02*
X001741Y011946D01*
X001838Y011946D02*
X001838Y012237D01*
X001741Y012140D01*
X001640Y012140D02*
X001640Y011946D01*
X001640Y012092D02*
X001446Y012092D01*
X001446Y012140D02*
X001543Y012237D01*
X001640Y012140D01*
X001446Y012140D02*
X001446Y011946D01*
X001446Y012946D02*
X001446Y013140D01*
X001543Y013237D01*
X001640Y013140D01*
X001640Y012946D01*
X001741Y012995D02*
X001935Y013188D01*
X001935Y012995D01*
X001886Y012946D01*
X001789Y012946D01*
X001741Y012995D01*
X001741Y013188D01*
X001789Y013237D01*
X001886Y013237D01*
X001935Y013188D01*
X001640Y013092D02*
X001446Y013092D01*
X001446Y013946D02*
X001446Y014237D01*
X001543Y014140D01*
X001640Y014237D01*
X001640Y013946D01*
X001741Y013995D02*
X001789Y013946D01*
X001886Y013946D01*
X001935Y013995D01*
X002036Y013946D02*
X002036Y014237D01*
X001935Y014188D02*
X001886Y014237D01*
X001789Y014237D01*
X001741Y014188D01*
X001741Y013995D01*
X002036Y013946D02*
X002229Y013946D01*
X002330Y013946D02*
X002330Y014237D01*
X002475Y014237D01*
X002524Y014188D01*
X002524Y014092D01*
X002475Y014043D01*
X002330Y014043D01*
X002427Y014043D02*
X002524Y013946D01*
X007126Y015696D02*
X007320Y015696D01*
X007416Y015793D01*
X007320Y015890D01*
X007126Y015890D01*
X007126Y015991D02*
X007126Y016136D01*
X007175Y016185D01*
X007271Y016185D01*
X007320Y016136D01*
X007320Y015991D01*
X007416Y015991D02*
X007126Y015991D01*
X007320Y016088D02*
X007416Y016185D01*
X007416Y016286D02*
X007126Y016286D01*
X007126Y016479D01*
X007175Y016580D02*
X007368Y016580D01*
X007416Y016629D01*
X007416Y016725D01*
X007368Y016774D01*
X007271Y016774D01*
X007271Y016677D01*
X007175Y016580D02*
X007126Y016629D01*
X007126Y016725D01*
X007175Y016774D01*
X007416Y016479D02*
X007416Y016286D01*
X007271Y016286D02*
X007271Y016382D01*
X007701Y016361D02*
X007943Y016361D01*
X007992Y016409D01*
X007992Y016506D01*
X007943Y016554D01*
X007701Y016554D01*
X007701Y016656D02*
X007701Y016849D01*
X007846Y016752D02*
X007846Y016656D01*
X007701Y016656D02*
X007992Y016656D01*
X007943Y016260D02*
X007750Y016260D01*
X007943Y016066D01*
X007992Y016115D01*
X007992Y016211D01*
X007943Y016260D01*
X007750Y016260D02*
X007701Y016211D01*
X007701Y016115D01*
X007750Y016066D01*
X007943Y016066D01*
X007992Y015965D02*
X007992Y015772D01*
X007992Y015868D02*
X007701Y015868D01*
X007798Y015772D01*
X017562Y009417D02*
X017562Y009126D01*
X017708Y009126D01*
X017756Y009175D01*
X017756Y009223D01*
X017708Y009272D01*
X017562Y009272D01*
X017562Y009417D02*
X017708Y009417D01*
X017756Y009368D01*
X017756Y009320D01*
X017708Y009272D01*
X017857Y009320D02*
X017954Y009417D01*
X017954Y009126D01*
X017857Y009126D02*
X018051Y009126D01*
X018152Y009175D02*
X018200Y009126D01*
X018297Y009126D01*
X018345Y009175D01*
X018345Y009272D01*
X018297Y009320D01*
X018249Y009320D01*
X018152Y009272D01*
X018152Y009417D01*
X018345Y009417D01*
X018297Y008417D02*
X018152Y008272D01*
X018345Y008272D01*
X018297Y008417D02*
X018297Y008126D01*
X018051Y008126D02*
X017857Y008126D01*
X017954Y008126D02*
X017954Y008417D01*
X017857Y008320D01*
X017756Y008320D02*
X017708Y008272D01*
X017562Y008272D01*
X017562Y008417D02*
X017708Y008417D01*
X017756Y008368D01*
X017756Y008320D01*
X017708Y008272D02*
X017756Y008223D01*
X017756Y008175D01*
X017708Y008126D01*
X017562Y008126D01*
X017562Y008417D01*
X017562Y007417D02*
X017708Y007417D01*
X017756Y007368D01*
X017756Y007320D01*
X017708Y007272D01*
X017562Y007272D01*
X017562Y007417D02*
X017562Y007126D01*
X017708Y007126D01*
X017756Y007175D01*
X017756Y007223D01*
X017708Y007272D01*
X017857Y007320D02*
X017954Y007417D01*
X017954Y007126D01*
X017857Y007126D02*
X018051Y007126D01*
X018152Y007175D02*
X018200Y007126D01*
X018297Y007126D01*
X018345Y007175D01*
X018345Y007223D01*
X018297Y007272D01*
X018249Y007272D01*
X018297Y007272D02*
X018345Y007320D01*
X018345Y007368D01*
X018297Y007417D01*
X018200Y007417D01*
X018152Y007368D01*
X018200Y006417D02*
X018152Y006368D01*
X018152Y006320D01*
X018200Y006272D01*
X018345Y006272D01*
X018345Y006368D02*
X018297Y006417D01*
X018200Y006417D01*
X018345Y006368D02*
X018345Y006175D01*
X018297Y006126D01*
X018200Y006126D01*
X018152Y006175D01*
X018051Y006175D02*
X018002Y006126D01*
X017857Y006126D01*
X017857Y006417D01*
X018002Y006417D01*
X018051Y006368D01*
X018051Y006320D01*
X018002Y006272D01*
X017857Y006272D01*
X018002Y006272D02*
X018051Y006223D01*
X018051Y006175D01*
X018002Y004417D02*
X018051Y004368D01*
X018051Y004320D01*
X018002Y004272D01*
X017857Y004272D01*
X017857Y004417D02*
X017857Y004126D01*
X018002Y004126D01*
X018051Y004175D01*
X018051Y004223D01*
X018002Y004272D01*
X018002Y004417D02*
X017857Y004417D01*
X018152Y004368D02*
X018152Y004320D01*
X018200Y004272D01*
X018297Y004272D01*
X018345Y004223D01*
X018345Y004175D01*
X018297Y004126D01*
X018200Y004126D01*
X018152Y004175D01*
X018152Y004223D01*
X018200Y004272D01*
X018297Y004272D02*
X018345Y004320D01*
X018345Y004368D01*
X018297Y004417D01*
X018200Y004417D01*
X018152Y004368D01*
X018152Y003417D02*
X018345Y003417D01*
X018345Y003368D01*
X018152Y003175D01*
X018152Y003126D01*
X018051Y003175D02*
X018002Y003126D01*
X017857Y003126D01*
X017857Y003417D01*
X018002Y003417D01*
X018051Y003368D01*
X018051Y003320D01*
X018002Y003272D01*
X017857Y003272D01*
X018002Y003272D02*
X018051Y003223D01*
X018051Y003175D01*
X018051Y002417D02*
X018051Y002126D01*
X017857Y002417D01*
X017857Y002126D01*
X017756Y002175D02*
X017756Y002272D01*
X017659Y002272D01*
X017562Y002368D02*
X017562Y002175D01*
X017611Y002126D01*
X017708Y002126D01*
X017756Y002175D01*
X017756Y002368D02*
X017708Y002417D01*
X017611Y002417D01*
X017562Y002368D01*
X018152Y002417D02*
X018152Y002126D01*
X018297Y002126D01*
X018345Y002175D01*
X018345Y002368D01*
X018297Y002417D01*
X018152Y002417D01*
X018152Y001417D02*
X018152Y001223D01*
X018249Y001126D01*
X018345Y001223D01*
X018345Y001417D01*
X018051Y001417D02*
X017857Y001417D01*
X017857Y001272D01*
X017954Y001320D01*
X018002Y001320D01*
X018051Y001272D01*
X018051Y001175D01*
X018002Y001126D01*
X017905Y001126D01*
X017857Y001175D01*
X014421Y004858D02*
X014421Y005052D01*
X014421Y004955D02*
X014131Y004955D01*
X014227Y004858D01*
X014179Y005153D02*
X014131Y005201D01*
X014131Y005298D01*
X014179Y005346D01*
X014372Y005153D01*
X014421Y005201D01*
X014421Y005298D01*
X014372Y005346D01*
X014179Y005346D01*
X014179Y005153D02*
X014372Y005153D01*
X019296Y009946D02*
X019666Y009946D01*
X019543Y009946D02*
X019296Y010193D01*
X019296Y010315D02*
X019296Y010376D01*
X019666Y010376D01*
X019666Y010315D02*
X019666Y010438D01*
X019666Y010560D02*
X019666Y010684D01*
X019666Y010622D02*
X019420Y010622D01*
X019420Y010560D01*
X019296Y010622D02*
X019234Y010622D01*
X019420Y010806D02*
X019420Y010991D01*
X019481Y011053D01*
X019666Y011053D01*
X019666Y011174D02*
X019296Y011174D01*
X019420Y011359D02*
X019543Y011174D01*
X019666Y011359D01*
X019605Y011849D02*
X019358Y011849D01*
X019296Y011911D01*
X019296Y012034D01*
X019358Y012096D01*
X019481Y012218D02*
X019420Y012279D01*
X019420Y012403D01*
X019481Y012464D01*
X019605Y012464D01*
X019666Y012403D01*
X019666Y012279D01*
X019605Y012218D01*
X019481Y012218D01*
X019605Y012096D02*
X019666Y012034D01*
X019666Y011911D01*
X019605Y011849D01*
X019666Y012586D02*
X019420Y012586D01*
X019543Y012586D02*
X019420Y012709D01*
X019420Y012771D01*
X019420Y012893D02*
X019420Y013078D01*
X019481Y013140D01*
X019605Y013140D01*
X019666Y013078D01*
X019666Y012893D01*
X019790Y012893D02*
X019420Y012893D01*
X019481Y013261D02*
X019420Y013323D01*
X019420Y013508D01*
X019543Y013446D02*
X019543Y013323D01*
X019481Y013261D01*
X019666Y013261D02*
X019666Y013446D01*
X019605Y013508D01*
X019543Y013446D01*
X019666Y010806D02*
X019420Y010806D01*
X019666Y010193D02*
X019481Y010008D01*
X007515Y000579D02*
X007515Y000531D01*
X007467Y000483D01*
X007515Y000434D01*
X007515Y000386D01*
X007467Y000338D01*
X007370Y000338D01*
X007321Y000386D01*
X007418Y000483D02*
X007467Y000483D01*
X007515Y000579D02*
X007467Y000628D01*
X007370Y000628D01*
X007321Y000579D01*
X007220Y000628D02*
X007027Y000628D01*
X007124Y000628D02*
X007124Y000338D01*
X006927Y000338D02*
X006830Y000338D01*
X006879Y000338D02*
X006879Y000628D01*
X006927Y000628D02*
X006830Y000628D01*
X006729Y000628D02*
X006536Y000434D01*
X006584Y000483D02*
X006729Y000338D01*
X006536Y000338D02*
X006536Y000628D01*
X006435Y000579D02*
X006386Y000628D01*
X006289Y000628D01*
X006241Y000579D01*
X006241Y000386D01*
X006289Y000338D01*
X006386Y000338D01*
X006435Y000386D01*
X006141Y000338D02*
X006045Y000338D01*
X006093Y000338D02*
X006093Y000628D01*
X006045Y000628D02*
X006141Y000628D01*
X005944Y000579D02*
X005944Y000483D01*
X005895Y000434D01*
X005750Y000434D01*
X005750Y000338D02*
X005750Y000628D01*
X005895Y000628D01*
X005944Y000579D01*
D12*
X005821Y000863D02*
X005571Y001113D01*
X005321Y000863D01*
X004821Y000863D01*
X004571Y001113D01*
X004321Y000863D01*
X003821Y000863D01*
X003571Y001113D01*
X003321Y000863D01*
X002821Y000863D01*
X002571Y001113D01*
X002571Y001613D01*
X002821Y001863D01*
X003321Y001863D01*
X003571Y001613D01*
X003821Y001863D01*
X004321Y001863D01*
X004571Y001613D01*
X004821Y001863D01*
X005321Y001863D01*
X005571Y001613D01*
X005821Y001863D01*
X006321Y001863D01*
X006571Y001613D01*
X006821Y001863D01*
X007321Y001863D01*
X007571Y001613D01*
X007571Y001113D01*
X007321Y000863D01*
X006821Y000863D01*
X006571Y001113D01*
X006321Y000863D01*
X005821Y000863D01*
X001181Y000931D02*
X000931Y000681D01*
X000431Y000681D01*
X000181Y000931D01*
X000181Y001431D01*
X000431Y001681D01*
X000181Y001931D01*
X000181Y002431D01*
X000431Y002681D01*
X000181Y002931D01*
X000181Y003431D01*
X000431Y003681D01*
X000181Y003931D01*
X000181Y004431D01*
X000431Y004681D01*
X000931Y004681D01*
X001181Y004431D01*
X001181Y003931D01*
X000931Y003681D01*
X001181Y003431D01*
X001181Y002931D01*
X000931Y002681D01*
X001181Y002431D01*
X001181Y001931D01*
X000931Y001681D01*
X001181Y001431D01*
X001181Y000931D01*
X000931Y005681D02*
X000431Y005681D01*
X000181Y005931D01*
X000181Y006431D01*
X000431Y006681D01*
X000181Y006931D01*
X000181Y007431D01*
X000431Y007681D01*
X000181Y007931D01*
X000181Y008431D01*
X000431Y008681D01*
X000181Y008931D01*
X000181Y009431D01*
X000431Y009681D01*
X000931Y009681D01*
X001181Y009431D01*
X001181Y008931D01*
X000931Y008681D01*
X001181Y008431D01*
X001181Y007931D01*
X000931Y007681D01*
X001181Y007431D01*
X001181Y006931D01*
X000931Y006681D01*
X001181Y006431D01*
X001181Y005931D01*
X000931Y005681D01*
X000931Y010681D02*
X000431Y010681D01*
X000181Y010931D01*
X000181Y011431D01*
X000431Y011681D01*
X000181Y011931D01*
X000181Y012431D01*
X000431Y012681D01*
X000181Y012931D01*
X000181Y013431D01*
X000431Y013681D01*
X000181Y013931D01*
X000181Y014431D01*
X000431Y014681D01*
X000931Y014681D01*
X001181Y014431D01*
X001181Y013931D01*
X000931Y013681D01*
X001181Y013431D01*
X001181Y012931D01*
X000931Y012681D01*
X001181Y012431D01*
X001181Y011931D01*
X000931Y011681D01*
X001181Y011431D01*
X001181Y010931D01*
X000931Y010681D01*
X008557Y015907D02*
X008557Y016307D01*
X008123Y016607D02*
X008125Y016669D01*
X008131Y016732D01*
X008141Y016793D01*
X008155Y016854D01*
X008172Y016914D01*
X008193Y016973D01*
X008219Y017030D01*
X008247Y017085D01*
X008279Y017139D01*
X008315Y017190D01*
X008353Y017240D01*
X008395Y017286D01*
X008439Y017330D01*
X008487Y017371D01*
X008536Y017409D01*
X008588Y017443D01*
X008642Y017474D01*
X008698Y017502D01*
X008756Y017526D01*
X008815Y017547D01*
X008875Y017563D01*
X008936Y017576D01*
X008998Y017585D01*
X009060Y017590D01*
X009123Y017591D01*
X009185Y017588D01*
X009247Y017581D01*
X009309Y017570D01*
X009369Y017555D01*
X009429Y017537D01*
X009487Y017515D01*
X009544Y017489D01*
X009599Y017459D01*
X009652Y017426D01*
X009703Y017390D01*
X009751Y017351D01*
X009797Y017308D01*
X009840Y017263D01*
X009880Y017215D01*
X009917Y017165D01*
X009951Y017112D01*
X009982Y017058D01*
X010008Y017002D01*
X010032Y016944D01*
X010051Y016884D01*
X010067Y016824D01*
X010079Y016762D01*
X010087Y016701D01*
X010091Y016638D01*
X010091Y016576D01*
X010087Y016513D01*
X010079Y016452D01*
X010067Y016390D01*
X010051Y016330D01*
X010032Y016270D01*
X010008Y016212D01*
X009982Y016156D01*
X009951Y016102D01*
X009917Y016049D01*
X009880Y015999D01*
X009840Y015951D01*
X009797Y015906D01*
X009751Y015863D01*
X009703Y015824D01*
X009652Y015788D01*
X009599Y015755D01*
X009544Y015725D01*
X009487Y015699D01*
X009429Y015677D01*
X009369Y015659D01*
X009309Y015644D01*
X009247Y015633D01*
X009185Y015626D01*
X009123Y015623D01*
X009060Y015624D01*
X008998Y015629D01*
X008936Y015638D01*
X008875Y015651D01*
X008815Y015667D01*
X008756Y015688D01*
X008698Y015712D01*
X008642Y015740D01*
X008588Y015771D01*
X008536Y015805D01*
X008487Y015843D01*
X008439Y015884D01*
X008395Y015928D01*
X008353Y015974D01*
X008315Y016024D01*
X008279Y016075D01*
X008247Y016129D01*
X008219Y016184D01*
X008193Y016241D01*
X008172Y016300D01*
X008155Y016360D01*
X008141Y016421D01*
X008131Y016482D01*
X008125Y016545D01*
X008123Y016607D01*
X018681Y009431D02*
X018681Y008931D01*
X018931Y008681D01*
X018681Y008431D01*
X018681Y007931D01*
X018931Y007681D01*
X018681Y007431D01*
X018681Y006931D01*
X018931Y006681D01*
X018681Y006431D01*
X018681Y005931D01*
X018931Y005681D01*
X019431Y005681D01*
X019681Y005931D01*
X019681Y006431D01*
X019431Y006681D01*
X019681Y006931D01*
X019681Y007431D01*
X019431Y007681D01*
X019681Y007931D01*
X019681Y008431D01*
X019431Y008681D01*
X019681Y008931D01*
X019681Y009431D01*
X019431Y009681D01*
X018931Y009681D01*
X018681Y009431D01*
X014552Y005693D02*
X014554Y005755D01*
X014560Y005818D01*
X014570Y005879D01*
X014584Y005940D01*
X014601Y006000D01*
X014622Y006059D01*
X014648Y006116D01*
X014676Y006171D01*
X014708Y006225D01*
X014744Y006276D01*
X014782Y006326D01*
X014824Y006372D01*
X014868Y006416D01*
X014916Y006457D01*
X014965Y006495D01*
X015017Y006529D01*
X015071Y006560D01*
X015127Y006588D01*
X015185Y006612D01*
X015244Y006633D01*
X015304Y006649D01*
X015365Y006662D01*
X015427Y006671D01*
X015489Y006676D01*
X015552Y006677D01*
X015614Y006674D01*
X015676Y006667D01*
X015738Y006656D01*
X015798Y006641D01*
X015858Y006623D01*
X015916Y006601D01*
X015973Y006575D01*
X016028Y006545D01*
X016081Y006512D01*
X016132Y006476D01*
X016180Y006437D01*
X016226Y006394D01*
X016269Y006349D01*
X016309Y006301D01*
X016346Y006251D01*
X016380Y006198D01*
X016411Y006144D01*
X016437Y006088D01*
X016461Y006030D01*
X016480Y005970D01*
X016496Y005910D01*
X016508Y005848D01*
X016516Y005787D01*
X016520Y005724D01*
X016520Y005662D01*
X016516Y005599D01*
X016508Y005538D01*
X016496Y005476D01*
X016480Y005416D01*
X016461Y005356D01*
X016437Y005298D01*
X016411Y005242D01*
X016380Y005188D01*
X016346Y005135D01*
X016309Y005085D01*
X016269Y005037D01*
X016226Y004992D01*
X016180Y004949D01*
X016132Y004910D01*
X016081Y004874D01*
X016028Y004841D01*
X015973Y004811D01*
X015916Y004785D01*
X015858Y004763D01*
X015798Y004745D01*
X015738Y004730D01*
X015676Y004719D01*
X015614Y004712D01*
X015552Y004709D01*
X015489Y004710D01*
X015427Y004715D01*
X015365Y004724D01*
X015304Y004737D01*
X015244Y004753D01*
X015185Y004774D01*
X015127Y004798D01*
X015071Y004826D01*
X015017Y004857D01*
X014965Y004891D01*
X014916Y004929D01*
X014868Y004970D01*
X014824Y005014D01*
X014782Y005060D01*
X014744Y005110D01*
X014708Y005161D01*
X014676Y005215D01*
X014648Y005270D01*
X014622Y005327D01*
X014601Y005386D01*
X014584Y005446D01*
X014570Y005507D01*
X014560Y005568D01*
X014554Y005631D01*
X014552Y005693D01*
X014986Y005393D02*
X014986Y004993D01*
X018681Y004431D02*
X018681Y003931D01*
X018931Y003681D01*
X018681Y003431D01*
X018681Y002931D01*
X018931Y002681D01*
X018681Y002431D01*
X018681Y001931D01*
X018931Y001681D01*
X018681Y001431D01*
X018681Y000931D01*
X018931Y000681D01*
X019431Y000681D01*
X019681Y000931D01*
X019681Y001431D01*
X019431Y001681D01*
X019681Y001931D01*
X019681Y002431D01*
X019431Y002681D01*
X019681Y002931D01*
X019681Y003431D01*
X019431Y003681D01*
X019681Y003931D01*
X019681Y004431D01*
X019431Y004681D01*
X018931Y004681D01*
X018681Y004431D01*
D13*
X005791Y005546D02*
X005715Y005469D01*
X005638Y005469D01*
X005561Y005546D01*
X005561Y005699D01*
X005638Y005776D01*
X005715Y005776D01*
X005791Y005699D01*
X005791Y005546D01*
X005561Y005546D02*
X005484Y005469D01*
X005408Y005469D01*
X005331Y005546D01*
X005331Y005699D01*
X005408Y005776D01*
X005484Y005776D01*
X005561Y005699D01*
X005331Y005929D02*
X005484Y006083D01*
X005331Y006236D01*
X005791Y006236D01*
X005791Y006390D02*
X005331Y006390D01*
X005561Y006390D02*
X005561Y006697D01*
X005484Y006850D02*
X005484Y007157D01*
X005791Y006850D01*
X005791Y007157D01*
X005791Y006697D02*
X005331Y006697D01*
X005331Y005929D02*
X005791Y005929D01*
X000768Y017442D02*
X000384Y017442D01*
X000384Y017749D02*
X000768Y017749D01*
X000844Y017672D01*
X000844Y017519D01*
X000768Y017442D01*
X000768Y017903D02*
X000844Y017979D01*
X000844Y018133D01*
X000768Y018210D01*
X000691Y018210D01*
X000614Y018133D01*
X000614Y017979D01*
X000538Y017903D01*
X000461Y017903D01*
X000384Y017979D01*
X000384Y018133D01*
X000461Y018210D01*
X000384Y018363D02*
X000384Y018593D01*
X000461Y018670D01*
X000538Y018670D01*
X000614Y018593D01*
X000614Y018363D01*
X000844Y018363D02*
X000384Y018363D01*
X000614Y018593D02*
X000691Y018670D01*
X000768Y018670D01*
X000844Y018593D01*
X000844Y018363D01*
X014301Y018918D02*
X014378Y018842D01*
X014531Y018842D01*
X014608Y018918D01*
X014608Y019302D01*
X014761Y019225D02*
X014761Y019148D01*
X014838Y019072D01*
X014991Y019072D01*
X015068Y018995D01*
X015068Y018918D01*
X014991Y018842D01*
X014838Y018842D01*
X014761Y018918D01*
X014761Y019225D02*
X014838Y019302D01*
X014991Y019302D01*
X015068Y019225D01*
X015222Y019302D02*
X015222Y018842D01*
X015528Y018842D01*
X015682Y018842D02*
X015682Y019302D01*
X015912Y019302D01*
X015989Y019225D01*
X015989Y019072D01*
X015912Y018995D01*
X015682Y018995D01*
X015835Y018995D02*
X015989Y018842D01*
X015528Y019302D02*
X015222Y019302D01*
X015222Y019072D02*
X015375Y019072D01*
X014301Y018918D02*
X014301Y019302D01*
X017268Y017986D02*
X017268Y017526D01*
X017268Y017679D02*
X017499Y017679D01*
X017575Y017756D01*
X017575Y017909D01*
X017499Y017986D01*
X017268Y017986D01*
X017422Y017679D02*
X017575Y017526D01*
X017729Y017526D02*
X018036Y017526D01*
X018189Y017603D02*
X018266Y017526D01*
X018419Y017526D01*
X018496Y017603D01*
X018496Y017679D01*
X018419Y017756D01*
X018266Y017756D01*
X018189Y017833D01*
X018189Y017909D01*
X018266Y017986D01*
X018419Y017986D01*
X018496Y017909D01*
X018649Y017986D02*
X018649Y017526D01*
X018956Y017526D01*
X018803Y017756D02*
X018649Y017756D01*
X018649Y017986D02*
X018956Y017986D01*
X019110Y017986D02*
X019417Y017986D01*
X019263Y017986D02*
X019263Y017526D01*
X018036Y017986D02*
X017729Y017986D01*
X017729Y017526D01*
X017729Y017756D02*
X017882Y017756D01*
D14*
X006641Y015861D03*
D15*
X006781Y015681D02*
X005631Y015681D01*
X006781Y015681D02*
X006881Y015781D01*
X006881Y019581D01*
X006781Y019681D01*
X005631Y019681D01*
X007499Y019479D02*
X007499Y018679D01*
X007501Y018662D01*
X007505Y018645D01*
X007512Y018629D01*
X007522Y018615D01*
X007535Y018602D01*
X007549Y018592D01*
X007565Y018585D01*
X007582Y018581D01*
X007599Y018579D01*
X009299Y018579D01*
X009316Y018581D01*
X009333Y018585D01*
X009349Y018592D01*
X009363Y018602D01*
X009376Y018615D01*
X009386Y018629D01*
X009393Y018645D01*
X009397Y018662D01*
X009399Y018679D01*
X009399Y019479D01*
X009397Y019496D01*
X009393Y019513D01*
X009386Y019529D01*
X009376Y019543D01*
X009363Y019556D01*
X009349Y019566D01*
X009333Y019573D01*
X009316Y019577D01*
X009299Y019579D01*
X007599Y019579D01*
X007582Y019577D01*
X007565Y019573D01*
X007549Y019566D01*
X007535Y019556D01*
X007522Y019543D01*
X007512Y019529D01*
X007505Y019513D01*
X007501Y019496D01*
X007499Y019479D01*
X008299Y019079D02*
X008349Y019079D01*
X008549Y019079D02*
X008599Y019079D01*
X010705Y017173D02*
X010705Y015473D01*
X010707Y015456D01*
X010711Y015439D01*
X010718Y015423D01*
X010728Y015409D01*
X010741Y015396D01*
X010755Y015386D01*
X010771Y015379D01*
X010788Y015375D01*
X010805Y015373D01*
X011605Y015373D01*
X011622Y015375D01*
X011639Y015379D01*
X011655Y015386D01*
X011669Y015396D01*
X011682Y015409D01*
X011692Y015423D01*
X011699Y015439D01*
X011703Y015456D01*
X011705Y015473D01*
X011705Y017173D01*
X011703Y017190D01*
X011699Y017207D01*
X011692Y017223D01*
X011682Y017237D01*
X011669Y017250D01*
X011655Y017260D01*
X011639Y017267D01*
X011622Y017271D01*
X011605Y017273D01*
X010805Y017273D01*
X010788Y017271D01*
X010771Y017267D01*
X010755Y017260D01*
X010741Y017250D01*
X010728Y017237D01*
X010718Y017223D01*
X010711Y017207D01*
X010707Y017190D01*
X010705Y017173D01*
X011205Y016473D02*
X011205Y016423D01*
X011205Y016223D02*
X011205Y016173D01*
X010819Y014894D02*
X010319Y014894D01*
X010819Y014894D02*
X010819Y000894D01*
X008819Y000894D01*
X008819Y014844D01*
X008819Y014894D02*
X009319Y014894D01*
X009321Y014850D01*
X009327Y014807D01*
X009336Y014765D01*
X009349Y014723D01*
X009366Y014683D01*
X009386Y014644D01*
X009409Y014607D01*
X009436Y014573D01*
X009465Y014540D01*
X009498Y014511D01*
X009532Y014484D01*
X009569Y014461D01*
X009608Y014441D01*
X009648Y014424D01*
X009690Y014411D01*
X009732Y014402D01*
X009775Y014396D01*
X009819Y014394D01*
X009863Y014396D01*
X009906Y014402D01*
X009948Y014411D01*
X009990Y014424D01*
X010030Y014441D01*
X010069Y014461D01*
X010106Y014484D01*
X010140Y014511D01*
X010173Y014540D01*
X010202Y014573D01*
X010229Y014607D01*
X010252Y014644D01*
X010272Y014683D01*
X010289Y014723D01*
X010302Y014765D01*
X010311Y014807D01*
X010317Y014850D01*
X010319Y014894D01*
X012674Y014417D02*
X012674Y012717D01*
X012676Y012700D01*
X012680Y012683D01*
X012687Y012667D01*
X012697Y012653D01*
X012710Y012640D01*
X012724Y012630D01*
X012740Y012623D01*
X012757Y012619D01*
X012774Y012617D01*
X013574Y012617D01*
X013591Y012619D01*
X013608Y012623D01*
X013624Y012630D01*
X013638Y012640D01*
X013651Y012653D01*
X013661Y012667D01*
X013668Y012683D01*
X013672Y012700D01*
X013674Y012717D01*
X013674Y014417D01*
X013672Y014434D01*
X013668Y014451D01*
X013661Y014467D01*
X013651Y014481D01*
X013638Y014494D01*
X013624Y014504D01*
X013608Y014511D01*
X013591Y014515D01*
X013574Y014517D01*
X012774Y014517D01*
X012757Y014515D01*
X012740Y014511D01*
X012724Y014504D01*
X012710Y014494D01*
X012697Y014481D01*
X012687Y014467D01*
X012680Y014451D01*
X012676Y014434D01*
X012674Y014417D01*
X013174Y013717D02*
X013174Y013667D01*
X013174Y013467D02*
X013174Y013417D01*
X012961Y015479D02*
X012811Y015479D01*
X012794Y015481D01*
X012777Y015485D01*
X012761Y015492D01*
X012747Y015502D01*
X012734Y015515D01*
X012724Y015529D01*
X012717Y015545D01*
X012713Y015562D01*
X012711Y015579D01*
X012961Y015479D02*
X013011Y015529D01*
X014911Y015529D01*
X014961Y015479D01*
X015111Y015479D01*
X015128Y015481D01*
X015145Y015485D01*
X015161Y015492D01*
X015175Y015502D01*
X015188Y015515D01*
X015198Y015529D01*
X015205Y015545D01*
X015209Y015562D01*
X015211Y015579D01*
X015211Y016279D02*
X015209Y016296D01*
X015205Y016313D01*
X015198Y016329D01*
X015188Y016343D01*
X015175Y016356D01*
X015161Y016366D01*
X015145Y016373D01*
X015128Y016377D01*
X015111Y016379D01*
X014961Y016379D01*
X014911Y016329D01*
X013011Y016329D01*
X012961Y016379D01*
X012811Y016379D01*
X012794Y016377D01*
X012777Y016373D01*
X012761Y016366D01*
X012747Y016356D01*
X012734Y016343D01*
X012724Y016329D01*
X012717Y016313D01*
X012713Y016296D01*
X012711Y016279D01*
X011797Y017904D02*
X011832Y017934D01*
X011865Y017965D01*
X011895Y018000D01*
X011922Y018036D01*
X011946Y018074D01*
X011968Y018114D01*
X011986Y018156D01*
X012002Y018199D01*
X012014Y018243D01*
X012022Y018287D01*
X012027Y018333D01*
X012029Y018378D01*
X012027Y018423D01*
X012022Y018469D01*
X012014Y018513D01*
X012002Y018557D01*
X011986Y018600D01*
X011968Y018642D01*
X011946Y018682D01*
X011922Y018720D01*
X011895Y018756D01*
X011865Y018791D01*
X011832Y018822D01*
X011797Y018852D01*
X010829Y018378D02*
X010831Y018332D01*
X010836Y018286D01*
X010845Y018240D01*
X010857Y018195D01*
X010873Y018152D01*
X010892Y018110D01*
X010915Y018069D01*
X010940Y018030D01*
X010968Y017994D01*
X010999Y017959D01*
X011033Y017927D01*
X011069Y017898D01*
X010829Y018378D02*
X010831Y018425D01*
X010837Y018473D01*
X010846Y018519D01*
X010859Y018565D01*
X010875Y018609D01*
X010895Y018653D01*
X010919Y018694D01*
X010945Y018733D01*
X010975Y018770D01*
X011008Y018805D01*
X011043Y018837D01*
X011080Y018866D01*
X016661Y015898D02*
X016661Y015748D01*
X016711Y015698D01*
X016711Y013798D01*
X016661Y013748D01*
X016661Y013598D01*
X016663Y013581D01*
X016667Y013564D01*
X016674Y013548D01*
X016684Y013534D01*
X016697Y013521D01*
X016711Y013511D01*
X016727Y013504D01*
X016744Y013500D01*
X016761Y013498D01*
X017461Y013498D02*
X017478Y013500D01*
X017495Y013504D01*
X017511Y013511D01*
X017525Y013521D01*
X017538Y013534D01*
X017548Y013548D01*
X017555Y013564D01*
X017559Y013581D01*
X017561Y013598D01*
X017561Y013748D01*
X017511Y013798D01*
X017511Y015698D01*
X017561Y015748D01*
X017561Y015898D01*
X017559Y015915D01*
X017555Y015932D01*
X017548Y015948D01*
X017538Y015962D01*
X017525Y015975D01*
X017511Y015985D01*
X017495Y015992D01*
X017478Y015996D01*
X017461Y015998D01*
X018023Y015898D02*
X018023Y015748D01*
X018073Y015698D01*
X018073Y013798D01*
X018023Y013748D01*
X018023Y013598D01*
X018025Y013581D01*
X018029Y013564D01*
X018036Y013548D01*
X018046Y013534D01*
X018059Y013521D01*
X018073Y013511D01*
X018089Y013504D01*
X018106Y013500D01*
X018123Y013498D01*
X018823Y013498D02*
X018840Y013500D01*
X018857Y013504D01*
X018873Y013511D01*
X018887Y013521D01*
X018900Y013534D01*
X018910Y013548D01*
X018917Y013564D01*
X018921Y013581D01*
X018923Y013598D01*
X018923Y013748D01*
X018873Y013798D01*
X018873Y015698D01*
X018923Y015748D01*
X018923Y015898D01*
X018921Y015915D01*
X018917Y015932D01*
X018910Y015948D01*
X018900Y015962D01*
X018887Y015975D01*
X018873Y015985D01*
X018857Y015992D01*
X018840Y015996D01*
X018823Y015998D01*
X018123Y015998D02*
X018106Y015996D01*
X018089Y015992D01*
X018073Y015985D01*
X018059Y015975D01*
X018046Y015962D01*
X018036Y015948D01*
X018029Y015932D01*
X018025Y015915D01*
X018023Y015898D01*
X016761Y015998D02*
X016744Y015996D01*
X016727Y015992D01*
X016711Y015985D01*
X016697Y015975D01*
X016684Y015962D01*
X016674Y015948D01*
X016667Y015932D01*
X016663Y015915D01*
X016661Y015898D01*
X018569Y011512D02*
X018567Y011467D01*
X018562Y011421D01*
X018554Y011377D01*
X018542Y011333D01*
X018526Y011290D01*
X018508Y011248D01*
X018486Y011208D01*
X018462Y011170D01*
X018435Y011134D01*
X018405Y011099D01*
X018372Y011068D01*
X018337Y011038D01*
X018569Y011512D02*
X018567Y011557D01*
X018562Y011603D01*
X018554Y011647D01*
X018542Y011691D01*
X018526Y011734D01*
X018508Y011776D01*
X018486Y011816D01*
X018462Y011854D01*
X018435Y011890D01*
X018405Y011925D01*
X018372Y011956D01*
X018337Y011986D01*
X017369Y011512D02*
X017371Y011466D01*
X017376Y011420D01*
X017385Y011374D01*
X017397Y011329D01*
X017413Y011286D01*
X017432Y011244D01*
X017455Y011203D01*
X017480Y011164D01*
X017508Y011128D01*
X017539Y011093D01*
X017573Y011061D01*
X017609Y011032D01*
X017369Y011512D02*
X017371Y011559D01*
X017377Y011607D01*
X017386Y011653D01*
X017399Y011699D01*
X017415Y011743D01*
X017435Y011787D01*
X017459Y011828D01*
X017485Y011867D01*
X017515Y011904D01*
X017548Y011939D01*
X017583Y011971D01*
X017620Y012000D01*
X015285Y009666D02*
X015285Y009516D01*
X015235Y009466D01*
X015235Y007566D01*
X015285Y007516D01*
X015285Y007366D01*
X015283Y007349D01*
X015279Y007332D01*
X015272Y007316D01*
X015262Y007302D01*
X015249Y007289D01*
X015235Y007279D01*
X015219Y007272D01*
X015202Y007268D01*
X015185Y007266D01*
X014485Y007266D02*
X014468Y007268D01*
X014451Y007272D01*
X014435Y007279D01*
X014421Y007289D01*
X014408Y007302D01*
X014398Y007316D01*
X014391Y007332D01*
X014387Y007349D01*
X014385Y007366D01*
X014385Y007516D01*
X014435Y007566D01*
X014435Y009466D01*
X014385Y009516D01*
X014385Y009666D01*
X014387Y009683D01*
X014391Y009700D01*
X014398Y009716D01*
X014408Y009730D01*
X014421Y009743D01*
X014435Y009753D01*
X014451Y009760D01*
X014468Y009764D01*
X014485Y009766D01*
X015185Y009766D02*
X015202Y009764D01*
X015219Y009760D01*
X015235Y009753D01*
X015249Y009743D01*
X015262Y009730D01*
X015272Y009716D01*
X015279Y009700D01*
X015283Y009683D01*
X015285Y009666D01*
X013624Y003595D02*
X013624Y003445D01*
X013574Y003395D01*
X013574Y001495D01*
X013624Y001445D01*
X013624Y001295D01*
X013622Y001278D01*
X013618Y001261D01*
X013611Y001245D01*
X013601Y001231D01*
X013588Y001218D01*
X013574Y001208D01*
X013558Y001201D01*
X013541Y001197D01*
X013524Y001195D01*
X012824Y001195D02*
X012807Y001197D01*
X012790Y001201D01*
X012774Y001208D01*
X012760Y001218D01*
X012747Y001231D01*
X012737Y001245D01*
X012730Y001261D01*
X012726Y001278D01*
X012724Y001295D01*
X012724Y001445D01*
X012774Y001495D01*
X012774Y003395D01*
X012724Y003445D01*
X012724Y003595D01*
X012726Y003612D01*
X012730Y003629D01*
X012737Y003645D01*
X012747Y003659D01*
X012760Y003672D01*
X012774Y003682D01*
X012790Y003689D01*
X012807Y003693D01*
X012824Y003695D01*
X013524Y003695D02*
X013541Y003693D01*
X013558Y003689D01*
X013574Y003682D01*
X013588Y003672D01*
X013601Y003659D01*
X013611Y003645D01*
X013618Y003629D01*
X013622Y003612D01*
X013624Y003595D01*
X016010Y001504D02*
X016008Y001459D01*
X016003Y001413D01*
X015995Y001369D01*
X015983Y001325D01*
X015967Y001282D01*
X015949Y001240D01*
X015927Y001200D01*
X015903Y001162D01*
X015876Y001126D01*
X015846Y001091D01*
X015813Y001060D01*
X015778Y001030D01*
X016010Y001504D02*
X016008Y001549D01*
X016003Y001595D01*
X015995Y001639D01*
X015983Y001683D01*
X015967Y001726D01*
X015949Y001768D01*
X015927Y001808D01*
X015903Y001846D01*
X015876Y001882D01*
X015846Y001917D01*
X015813Y001948D01*
X015778Y001978D01*
X014810Y001504D02*
X014812Y001458D01*
X014817Y001412D01*
X014826Y001366D01*
X014838Y001321D01*
X014854Y001278D01*
X014873Y001236D01*
X014896Y001195D01*
X014921Y001156D01*
X014949Y001120D01*
X014980Y001085D01*
X015014Y001053D01*
X015050Y001024D01*
X014810Y001504D02*
X014812Y001551D01*
X014818Y001599D01*
X014827Y001645D01*
X014840Y001691D01*
X014856Y001735D01*
X014876Y001779D01*
X014900Y001820D01*
X014926Y001859D01*
X014956Y001896D01*
X014989Y001931D01*
X015024Y001963D01*
X015061Y001992D01*
X006643Y002537D02*
X006643Y003337D01*
X006641Y003354D01*
X006637Y003371D01*
X006630Y003387D01*
X006620Y003401D01*
X006607Y003414D01*
X006593Y003424D01*
X006577Y003431D01*
X006560Y003435D01*
X006543Y003437D01*
X004843Y003437D01*
X004826Y003435D01*
X004809Y003431D01*
X004793Y003424D01*
X004779Y003414D01*
X004766Y003401D01*
X004756Y003387D01*
X004749Y003371D01*
X004745Y003354D01*
X004743Y003337D01*
X004743Y002537D01*
X004745Y002520D01*
X004749Y002503D01*
X004756Y002487D01*
X004766Y002473D01*
X004779Y002460D01*
X004793Y002450D01*
X004809Y002443D01*
X004826Y002439D01*
X004843Y002437D01*
X006543Y002437D01*
X006560Y002439D01*
X006577Y002443D01*
X006593Y002450D01*
X006607Y002460D01*
X006620Y002473D01*
X006630Y002487D01*
X006637Y002503D01*
X006641Y002520D01*
X006643Y002537D01*
X005843Y002937D02*
X005793Y002937D01*
X005593Y002937D02*
X005543Y002937D01*
D16*
X005431Y015956D03*
X005431Y019406D03*
D17*
X005331Y018681D03*
X005331Y017681D03*
X005331Y016681D03*
D18*
X005431Y017181D03*
X005431Y018181D03*
D19*
X009589Y013905D02*
X009484Y013800D01*
X009484Y013589D01*
X009589Y013484D01*
X009589Y013260D02*
X009694Y013260D01*
X009799Y013155D01*
X009904Y013260D01*
X010009Y013260D01*
X010114Y013155D01*
X010114Y012945D01*
X010009Y012840D01*
X009799Y013050D02*
X009799Y013155D01*
X009589Y013260D02*
X009484Y013155D01*
X009484Y012945D01*
X009589Y012840D01*
X009589Y012616D02*
X009484Y012511D01*
X009484Y012300D01*
X009589Y012195D01*
X010009Y012195D01*
X010114Y012300D01*
X010114Y012511D01*
X010009Y012616D01*
X010114Y011976D02*
X010114Y011766D01*
X010114Y011871D02*
X009484Y011871D01*
X009484Y011766D02*
X009484Y011976D01*
X009589Y011541D02*
X009799Y011541D01*
X009904Y011436D01*
X009904Y011121D01*
X010114Y011121D02*
X009484Y011121D01*
X009484Y011436D01*
X009589Y011541D01*
X010114Y013484D02*
X009694Y013905D01*
X009589Y013905D01*
X010114Y013905D02*
X010114Y013484D01*
D20*
X010205Y015176D02*
X010130Y015251D01*
X010130Y015402D01*
X010205Y015477D01*
X010505Y015176D01*
X010580Y015251D01*
X010580Y015402D01*
X010505Y015477D01*
X010205Y015477D01*
X010205Y015176D02*
X010505Y015176D01*
X010505Y015637D02*
X010505Y015712D01*
X010580Y015712D01*
X010580Y015637D01*
X010505Y015637D01*
X010580Y015867D02*
X010580Y016167D01*
X010580Y016017D02*
X010130Y016017D01*
X010280Y015867D01*
X010280Y016327D02*
X010505Y016327D01*
X010580Y016402D01*
X010580Y016628D01*
X010280Y016628D01*
X010355Y016788D02*
X010355Y016938D01*
X010130Y016788D02*
X010130Y017088D01*
X010130Y016788D02*
X010580Y016788D01*
X009185Y018004D02*
X009185Y018454D01*
X009486Y018454D01*
X009335Y018229D02*
X009185Y018229D01*
X009025Y018304D02*
X009025Y018004D01*
X008800Y018004D01*
X008725Y018079D01*
X008725Y018304D01*
X008565Y018004D02*
X008265Y018004D01*
X008415Y018004D02*
X008415Y018454D01*
X008265Y018304D01*
X008110Y018079D02*
X008110Y018004D01*
X008034Y018004D01*
X008034Y018079D01*
X008110Y018079D01*
X007874Y018079D02*
X007874Y018379D01*
X007574Y018079D01*
X007649Y018004D01*
X007799Y018004D01*
X007874Y018079D01*
X007874Y018379D02*
X007799Y018454D01*
X007649Y018454D01*
X007574Y018379D01*
X007574Y018079D01*
X010503Y019153D02*
X010503Y019604D01*
X010728Y019604D01*
X010803Y019529D01*
X010803Y019378D01*
X010728Y019303D01*
X010503Y019303D01*
X010963Y019228D02*
X011038Y019153D01*
X011188Y019153D01*
X011263Y019228D01*
X011263Y019529D01*
X011188Y019604D01*
X011038Y019604D01*
X010963Y019529D01*
X010963Y019228D01*
X011423Y019153D02*
X011423Y019604D01*
X011573Y019303D02*
X011723Y019153D01*
X011723Y019604D01*
X011884Y019604D02*
X011884Y019153D01*
X012184Y019153D01*
X012344Y019153D02*
X012344Y019604D01*
X012569Y019604D01*
X012644Y019529D01*
X012644Y019378D01*
X012569Y019303D01*
X012344Y019303D01*
X012494Y019303D02*
X012644Y019153D01*
X012184Y019604D02*
X011884Y019604D01*
X011884Y019378D02*
X012034Y019378D01*
X011573Y019303D02*
X011423Y019153D01*
X013161Y016185D02*
X013311Y016185D01*
X013386Y016110D01*
X013386Y016035D01*
X013311Y015960D01*
X013386Y015885D01*
X013386Y015809D01*
X013311Y015734D01*
X013161Y015734D01*
X013086Y015809D01*
X013236Y015960D02*
X013311Y015960D01*
X013086Y016110D02*
X013161Y016185D01*
X013546Y016110D02*
X013621Y016185D01*
X013771Y016185D01*
X013847Y016110D01*
X013847Y016035D01*
X013771Y015960D01*
X013847Y015885D01*
X013847Y015809D01*
X013771Y015734D01*
X013621Y015734D01*
X013546Y015809D01*
X013696Y015960D02*
X013771Y015960D01*
X014007Y016110D02*
X014007Y015809D01*
X014307Y016110D01*
X014307Y015809D01*
X014232Y015734D01*
X014082Y015734D01*
X014007Y015809D01*
X014007Y016110D02*
X014082Y016185D01*
X014232Y016185D01*
X014307Y016110D01*
X012323Y014182D02*
X012323Y014032D01*
X012248Y013872D02*
X012549Y013872D01*
X012549Y013646D01*
X012474Y013571D01*
X012248Y013571D01*
X012549Y013411D02*
X012549Y013111D01*
X012549Y013261D02*
X012098Y013261D01*
X012248Y013111D01*
X012474Y012956D02*
X012549Y012956D01*
X012549Y012881D01*
X012474Y012881D01*
X012474Y012956D01*
X012474Y012721D02*
X012549Y012646D01*
X012549Y012496D01*
X012474Y012421D01*
X012173Y012721D01*
X012474Y012721D01*
X012474Y012421D02*
X012173Y012421D01*
X012098Y012496D01*
X012098Y012646D01*
X012173Y012721D01*
X012098Y014032D02*
X012098Y014332D01*
X012098Y014032D02*
X012549Y014032D01*
X016915Y013902D02*
X016915Y013602D01*
X017140Y013602D01*
X017065Y013752D01*
X017065Y013827D01*
X017140Y013902D01*
X017291Y013902D01*
X017366Y013827D01*
X017366Y013677D01*
X017291Y013602D01*
X017291Y014062D02*
X017291Y014137D01*
X017366Y014137D01*
X017366Y014062D01*
X017291Y014062D01*
X017366Y014292D02*
X017366Y014592D01*
X017366Y014442D02*
X016915Y014442D01*
X017065Y014292D01*
X016990Y014752D02*
X016915Y014828D01*
X016915Y014978D01*
X016990Y015053D01*
X017291Y014752D01*
X017366Y014828D01*
X017366Y014978D01*
X017291Y015053D01*
X016990Y015053D01*
X016915Y015213D02*
X017366Y015213D01*
X017215Y015213D02*
X016915Y015513D01*
X017140Y015288D02*
X017366Y015513D01*
X017291Y014752D02*
X016990Y014752D01*
X018217Y014794D02*
X018668Y014794D01*
X018518Y014794D02*
X018217Y015094D01*
X018443Y014869D02*
X018668Y015094D01*
X018593Y014634D02*
X018292Y014634D01*
X018593Y014334D01*
X018668Y014409D01*
X018668Y014559D01*
X018593Y014634D01*
X018593Y014334D02*
X018292Y014334D01*
X018217Y014409D01*
X018217Y014559D01*
X018292Y014634D01*
X018668Y014174D02*
X018668Y013873D01*
X018668Y014023D02*
X018217Y014023D01*
X018368Y013873D01*
X018266Y012737D02*
X018116Y012737D01*
X018191Y012737D02*
X018191Y012287D01*
X018116Y012287D02*
X018266Y012287D01*
X018423Y012287D02*
X018723Y012737D01*
X018883Y012662D02*
X018883Y012362D01*
X018958Y012287D01*
X019109Y012287D01*
X019184Y012362D01*
X019184Y012662D01*
X019109Y012737D01*
X018958Y012737D01*
X018883Y012662D01*
X015090Y009206D02*
X015090Y009056D01*
X015015Y008981D01*
X014715Y009281D01*
X015015Y009281D01*
X015090Y009206D01*
X015015Y008981D02*
X014715Y008981D01*
X014640Y009056D01*
X014640Y009206D01*
X014715Y009281D01*
X014715Y008820D02*
X014640Y008745D01*
X014640Y008595D01*
X014715Y008520D01*
X014715Y008360D02*
X014640Y008285D01*
X014640Y008135D01*
X014715Y008060D01*
X014865Y008210D02*
X014865Y008285D01*
X014940Y008360D01*
X015015Y008360D01*
X015090Y008285D01*
X015090Y008135D01*
X015015Y008060D01*
X015015Y007905D02*
X015090Y007905D01*
X015090Y007830D01*
X015015Y007830D01*
X015015Y007905D01*
X015015Y007670D02*
X015090Y007594D01*
X015090Y007444D01*
X015015Y007369D01*
X014865Y007519D02*
X014865Y007594D01*
X014940Y007670D01*
X015015Y007670D01*
X014865Y007594D02*
X014790Y007670D01*
X014715Y007670D01*
X014640Y007594D01*
X014640Y007444D01*
X014715Y007369D01*
X014865Y008285D02*
X014790Y008360D01*
X014715Y008360D01*
X015015Y008520D02*
X015090Y008595D01*
X015090Y008745D01*
X015015Y008820D01*
X014940Y008820D01*
X014865Y008745D01*
X014865Y008670D01*
X014865Y008745D02*
X014790Y008820D01*
X014715Y008820D01*
X013294Y003482D02*
X012993Y003482D01*
X013294Y003181D01*
X013369Y003256D01*
X013369Y003407D01*
X013294Y003482D01*
X013294Y003181D02*
X012993Y003181D01*
X012918Y003256D01*
X012918Y003407D01*
X012993Y003482D01*
X012993Y003021D02*
X013068Y003021D01*
X013143Y002946D01*
X013218Y003021D01*
X013294Y003021D01*
X013369Y002946D01*
X013369Y002796D01*
X013294Y002721D01*
X013294Y002561D02*
X013218Y002561D01*
X013143Y002486D01*
X013143Y002411D01*
X013143Y002486D02*
X013068Y002561D01*
X012993Y002561D01*
X012918Y002486D01*
X012918Y002336D01*
X012993Y002261D01*
X013294Y002261D02*
X013369Y002336D01*
X013369Y002486D01*
X013294Y002561D01*
X012993Y002721D02*
X012918Y002796D01*
X012918Y002946D01*
X012993Y003021D01*
X013143Y002946D02*
X013143Y002871D01*
X013294Y002106D02*
X013369Y002106D01*
X013369Y002031D01*
X013294Y002031D01*
X013294Y002106D01*
X013143Y001870D02*
X013143Y001570D01*
X012918Y001795D01*
X013369Y001795D01*
X015404Y002354D02*
X015479Y002279D01*
X015629Y002279D01*
X015704Y002354D01*
X015704Y002655D01*
X015629Y002730D01*
X015479Y002730D01*
X015404Y002655D01*
X015404Y002354D01*
X015864Y002354D02*
X015939Y002279D01*
X016089Y002279D01*
X016164Y002354D01*
X016324Y002279D02*
X016625Y002279D01*
X016474Y002279D02*
X016474Y002730D01*
X016324Y002579D01*
X016164Y002655D02*
X016089Y002730D01*
X015939Y002730D01*
X015864Y002655D01*
X015864Y002354D01*
X006811Y005303D02*
X006811Y007596D01*
X006812Y007596D02*
X006810Y007631D01*
X006805Y007665D01*
X006797Y007699D01*
X006785Y007731D01*
X006770Y007763D01*
X006752Y007793D01*
X006732Y007821D01*
X006708Y007846D01*
X006683Y007870D01*
X006655Y007890D01*
X006625Y007908D01*
X006593Y007923D01*
X006561Y007935D01*
X006527Y007943D01*
X006493Y007948D01*
X006458Y007950D01*
X006458Y007949D02*
X006165Y007949D01*
X006165Y007950D02*
X006130Y007948D01*
X006096Y007943D01*
X006062Y007935D01*
X006030Y007923D01*
X005998Y007908D01*
X005968Y007890D01*
X005940Y007870D01*
X005915Y007846D01*
X005891Y007821D01*
X005871Y007793D01*
X005853Y007763D01*
X005838Y007731D01*
X005826Y007699D01*
X005818Y007665D01*
X005813Y007631D01*
X005811Y007596D01*
X005811Y005303D01*
X005813Y005268D01*
X005818Y005234D01*
X005826Y005200D01*
X005838Y005168D01*
X005853Y005136D01*
X005871Y005106D01*
X005891Y005078D01*
X005915Y005053D01*
X005940Y005029D01*
X005968Y005009D01*
X005998Y004991D01*
X006030Y004976D01*
X006062Y004964D01*
X006096Y004956D01*
X006130Y004951D01*
X006165Y004949D01*
X006458Y004949D01*
X006493Y004951D01*
X006527Y004956D01*
X006561Y004964D01*
X006593Y004976D01*
X006625Y004991D01*
X006655Y005009D01*
X006683Y005029D01*
X006708Y005053D01*
X006732Y005078D01*
X006752Y005106D01*
X006770Y005136D01*
X006785Y005168D01*
X006797Y005200D01*
X006805Y005234D01*
X006810Y005268D01*
X006812Y005303D01*
X006458Y004013D02*
X006158Y004013D01*
X006158Y003562D01*
X005998Y003562D02*
X005998Y003863D01*
X006158Y003787D02*
X006308Y003787D01*
X005998Y003562D02*
X005772Y003562D01*
X005697Y003637D01*
X005697Y003863D01*
X005537Y003562D02*
X005237Y003562D01*
X005387Y003562D02*
X005387Y004013D01*
X005237Y003863D01*
X005082Y003637D02*
X005082Y003562D01*
X005007Y003562D01*
X005007Y003637D01*
X005082Y003637D01*
X004847Y003637D02*
X004847Y003938D01*
X004546Y003637D01*
X004622Y003562D01*
X004772Y003562D01*
X004847Y003637D01*
X004847Y003938D02*
X004772Y004013D01*
X004622Y004013D01*
X004546Y003938D01*
X004546Y003637D01*
X013722Y018422D02*
X013724Y018497D01*
X013730Y018571D01*
X013740Y018645D01*
X013754Y018718D01*
X013771Y018790D01*
X013793Y018862D01*
X013818Y018932D01*
X013847Y019000D01*
X013880Y019068D01*
X013916Y019133D01*
X013955Y019196D01*
X013998Y019257D01*
X014044Y019316D01*
X014093Y019372D01*
X014145Y019425D01*
X014200Y019476D01*
X014257Y019523D01*
X014317Y019568D01*
X014379Y019609D01*
X014444Y019647D01*
X014510Y019681D01*
X014578Y019712D01*
X014647Y019739D01*
X014718Y019762D01*
X014790Y019782D01*
X014863Y019798D01*
X014936Y019810D01*
X015010Y019818D01*
X015085Y019822D01*
X015159Y019822D01*
X015234Y019818D01*
X015308Y019810D01*
X015381Y019798D01*
X015454Y019782D01*
X015526Y019762D01*
X015597Y019739D01*
X015666Y019712D01*
X015734Y019681D01*
X015800Y019647D01*
X015865Y019609D01*
X015927Y019568D01*
X015987Y019523D01*
X016044Y019476D01*
X016099Y019425D01*
X016151Y019372D01*
X016200Y019316D01*
X016246Y019257D01*
X016289Y019196D01*
X016328Y019133D01*
X016364Y019068D01*
X016397Y019000D01*
X016426Y018932D01*
X016451Y018862D01*
X016473Y018790D01*
X016490Y018718D01*
X016504Y018645D01*
X016514Y018571D01*
X016520Y018497D01*
X016522Y018422D01*
X016520Y018347D01*
X016514Y018273D01*
X016504Y018199D01*
X016490Y018126D01*
X016473Y018054D01*
X016451Y017982D01*
X016426Y017912D01*
X016397Y017844D01*
X016364Y017776D01*
X016328Y017711D01*
X016289Y017648D01*
X016246Y017587D01*
X016200Y017528D01*
X016151Y017472D01*
X016099Y017419D01*
X016044Y017368D01*
X015987Y017321D01*
X015927Y017276D01*
X015865Y017235D01*
X015800Y017197D01*
X015734Y017163D01*
X015666Y017132D01*
X015597Y017105D01*
X015526Y017082D01*
X015454Y017062D01*
X015381Y017046D01*
X015308Y017034D01*
X015234Y017026D01*
X015159Y017022D01*
X015085Y017022D01*
X015010Y017026D01*
X014936Y017034D01*
X014863Y017046D01*
X014790Y017062D01*
X014718Y017082D01*
X014647Y017105D01*
X014578Y017132D01*
X014510Y017163D01*
X014444Y017197D01*
X014379Y017235D01*
X014317Y017276D01*
X014257Y017321D01*
X014200Y017368D01*
X014145Y017419D01*
X014093Y017472D01*
X014044Y017528D01*
X013998Y017587D01*
X013955Y017648D01*
X013916Y017711D01*
X013880Y017776D01*
X013847Y017844D01*
X013818Y017912D01*
X013793Y017982D01*
X013771Y018054D01*
X013754Y018126D01*
X013740Y018199D01*
X013730Y018273D01*
X013724Y018347D01*
X013722Y018422D01*
X016848Y018406D02*
X016850Y018481D01*
X016856Y018555D01*
X016866Y018629D01*
X016880Y018702D01*
X016897Y018774D01*
X016919Y018846D01*
X016944Y018916D01*
X016973Y018984D01*
X017006Y019052D01*
X017042Y019117D01*
X017081Y019180D01*
X017124Y019241D01*
X017170Y019300D01*
X017219Y019356D01*
X017271Y019409D01*
X017326Y019460D01*
X017383Y019507D01*
X017443Y019552D01*
X017505Y019593D01*
X017570Y019631D01*
X017636Y019665D01*
X017704Y019696D01*
X017773Y019723D01*
X017844Y019746D01*
X017916Y019766D01*
X017989Y019782D01*
X018062Y019794D01*
X018136Y019802D01*
X018211Y019806D01*
X018285Y019806D01*
X018360Y019802D01*
X018434Y019794D01*
X018507Y019782D01*
X018580Y019766D01*
X018652Y019746D01*
X018723Y019723D01*
X018792Y019696D01*
X018860Y019665D01*
X018926Y019631D01*
X018991Y019593D01*
X019053Y019552D01*
X019113Y019507D01*
X019170Y019460D01*
X019225Y019409D01*
X019277Y019356D01*
X019326Y019300D01*
X019372Y019241D01*
X019415Y019180D01*
X019454Y019117D01*
X019490Y019052D01*
X019523Y018984D01*
X019552Y018916D01*
X019577Y018846D01*
X019599Y018774D01*
X019616Y018702D01*
X019630Y018629D01*
X019640Y018555D01*
X019646Y018481D01*
X019648Y018406D01*
X019646Y018331D01*
X019640Y018257D01*
X019630Y018183D01*
X019616Y018110D01*
X019599Y018038D01*
X019577Y017966D01*
X019552Y017896D01*
X019523Y017828D01*
X019490Y017760D01*
X019454Y017695D01*
X019415Y017632D01*
X019372Y017571D01*
X019326Y017512D01*
X019277Y017456D01*
X019225Y017403D01*
X019170Y017352D01*
X019113Y017305D01*
X019053Y017260D01*
X018991Y017219D01*
X018926Y017181D01*
X018860Y017147D01*
X018792Y017116D01*
X018723Y017089D01*
X018652Y017066D01*
X018580Y017046D01*
X018507Y017030D01*
X018434Y017018D01*
X018360Y017010D01*
X018285Y017006D01*
X018211Y017006D01*
X018136Y017010D01*
X018062Y017018D01*
X017989Y017030D01*
X017916Y017046D01*
X017844Y017066D01*
X017773Y017089D01*
X017704Y017116D01*
X017636Y017147D01*
X017570Y017181D01*
X017505Y017219D01*
X017443Y017260D01*
X017383Y017305D01*
X017326Y017352D01*
X017271Y017403D01*
X017219Y017456D01*
X017170Y017512D01*
X017124Y017571D01*
X017081Y017632D01*
X017042Y017695D01*
X017006Y017760D01*
X016973Y017828D01*
X016944Y017896D01*
X016919Y017966D01*
X016897Y018038D01*
X016880Y018110D01*
X016866Y018183D01*
X016856Y018257D01*
X016850Y018331D01*
X016848Y018406D01*
D21*
X017111Y016248D02*
X017111Y016098D01*
X018473Y013398D02*
X018473Y013248D01*
X014835Y010016D02*
X014835Y009866D01*
X012611Y015929D02*
X012461Y015929D01*
X013174Y001095D02*
X013174Y000945D01*
D22*
X013174Y003795D02*
X013174Y003945D01*
X014835Y007016D02*
X014835Y007166D01*
X017111Y013248D02*
X017111Y013398D01*
X015461Y015929D02*
X015311Y015929D01*
X018473Y016098D02*
X018473Y016248D01*
D23*
X018469Y012132D02*
X017469Y012132D01*
X017169Y011512D02*
X017171Y011458D01*
X017176Y011404D01*
X017185Y011351D01*
X017198Y011298D01*
X017214Y011247D01*
X017234Y011197D01*
X017257Y011148D01*
X017283Y011100D01*
X017312Y011055D01*
X017345Y011012D01*
X017380Y010971D01*
X017418Y010932D01*
X017458Y010896D01*
X017501Y010863D01*
X017546Y010833D01*
X017593Y010806D01*
X018366Y010817D02*
X018414Y010847D01*
X018459Y010880D01*
X018502Y010916D01*
X018543Y010954D01*
X018580Y010996D01*
X018615Y011040D01*
X018646Y011086D01*
X018675Y011135D01*
X018699Y011185D01*
X018720Y011237D01*
X018738Y011291D01*
X018751Y011345D01*
X018761Y011400D01*
X018767Y011456D01*
X018769Y011512D01*
X018388Y010831D02*
X018340Y010803D01*
X018291Y010779D01*
X018239Y010759D01*
X018187Y010742D01*
X018133Y010729D01*
X018079Y010720D01*
X018024Y010714D01*
X017969Y010712D01*
X017913Y010714D01*
X017856Y010720D01*
X017801Y010730D01*
X017746Y010744D01*
X017693Y010761D01*
X017640Y010783D01*
X017590Y010808D01*
X018769Y011512D02*
X018767Y011565D01*
X018762Y011619D01*
X018753Y011671D01*
X018741Y011723D01*
X018725Y011774D01*
X018706Y011824D01*
X018683Y011873D01*
X018657Y011920D01*
X018629Y011965D01*
X018597Y012008D01*
X018563Y012048D01*
X018525Y012087D01*
X018486Y012123D01*
X017457Y012127D02*
X017417Y012091D01*
X017379Y012052D01*
X017344Y012011D01*
X017312Y011968D01*
X017282Y011923D01*
X017256Y011876D01*
X017234Y011827D01*
X017214Y011776D01*
X017198Y011725D01*
X017185Y011673D01*
X017176Y011619D01*
X017171Y011566D01*
X017169Y011512D01*
X013474Y013467D02*
X013174Y013467D01*
X012874Y013467D01*
X012874Y013667D02*
X013174Y013667D01*
X013474Y013667D01*
X011505Y016223D02*
X011205Y016223D01*
X010905Y016223D01*
X010905Y016423D02*
X011205Y016423D01*
X011505Y016423D01*
X011826Y017683D02*
X011874Y017713D01*
X011919Y017746D01*
X011962Y017782D01*
X012003Y017820D01*
X012040Y017862D01*
X012075Y017906D01*
X012106Y017952D01*
X012135Y018001D01*
X012159Y018051D01*
X012180Y018103D01*
X012198Y018157D01*
X012211Y018211D01*
X012221Y018266D01*
X012227Y018322D01*
X012229Y018378D01*
X011929Y018998D02*
X010929Y018998D01*
X010629Y018378D02*
X010631Y018324D01*
X010636Y018270D01*
X010645Y018217D01*
X010658Y018164D01*
X010674Y018113D01*
X010694Y018063D01*
X010717Y018014D01*
X010743Y017966D01*
X010772Y017921D01*
X010805Y017878D01*
X010840Y017837D01*
X010878Y017798D01*
X010918Y017762D01*
X010961Y017729D01*
X011006Y017699D01*
X011053Y017672D01*
X011429Y017578D02*
X011484Y017580D01*
X011539Y017586D01*
X011593Y017595D01*
X011647Y017608D01*
X011699Y017625D01*
X011751Y017645D01*
X011800Y017669D01*
X011848Y017697D01*
X011429Y017578D02*
X011373Y017580D01*
X011316Y017586D01*
X011261Y017596D01*
X011206Y017610D01*
X011153Y017627D01*
X011100Y017649D01*
X011050Y017674D01*
X012229Y018378D02*
X012227Y018431D01*
X012222Y018485D01*
X012213Y018537D01*
X012201Y018589D01*
X012185Y018640D01*
X012166Y018690D01*
X012143Y018739D01*
X012117Y018786D01*
X012089Y018831D01*
X012057Y018874D01*
X012023Y018914D01*
X011985Y018953D01*
X011946Y018989D01*
X010917Y018993D02*
X010877Y018957D01*
X010839Y018918D01*
X010804Y018877D01*
X010772Y018834D01*
X010742Y018789D01*
X010716Y018742D01*
X010694Y018693D01*
X010674Y018642D01*
X010658Y018591D01*
X010645Y018539D01*
X010636Y018485D01*
X010631Y018432D01*
X010629Y018378D01*
X008549Y018779D02*
X008549Y019079D01*
X008549Y019379D01*
X008349Y019379D02*
X008349Y019079D01*
X008349Y018779D01*
X005793Y003237D02*
X005793Y002937D01*
X005793Y002637D01*
X005593Y002637D02*
X005593Y002937D01*
X005593Y003237D01*
X014910Y002124D02*
X015910Y002124D01*
X015829Y000823D02*
X015781Y000795D01*
X015732Y000771D01*
X015680Y000751D01*
X015628Y000734D01*
X015574Y000721D01*
X015520Y000712D01*
X015465Y000706D01*
X015410Y000704D01*
X015807Y000809D02*
X015855Y000839D01*
X015900Y000872D01*
X015943Y000908D01*
X015984Y000946D01*
X016021Y000988D01*
X016056Y001032D01*
X016087Y001078D01*
X016116Y001127D01*
X016140Y001177D01*
X016161Y001229D01*
X016179Y001283D01*
X016192Y001337D01*
X016202Y001392D01*
X016208Y001448D01*
X016210Y001504D01*
X015410Y000704D02*
X015354Y000706D01*
X015297Y000712D01*
X015242Y000722D01*
X015187Y000736D01*
X015134Y000753D01*
X015081Y000775D01*
X015031Y000800D01*
X016210Y001504D02*
X016208Y001557D01*
X016203Y001611D01*
X016194Y001663D01*
X016182Y001715D01*
X016166Y001766D01*
X016147Y001816D01*
X016124Y001865D01*
X016098Y001912D01*
X016070Y001957D01*
X016038Y002000D01*
X016004Y002040D01*
X015966Y002079D01*
X015927Y002115D01*
X014610Y001504D02*
X014612Y001450D01*
X014617Y001396D01*
X014626Y001343D01*
X014639Y001290D01*
X014655Y001239D01*
X014675Y001189D01*
X014698Y001140D01*
X014724Y001092D01*
X014753Y001047D01*
X014786Y001004D01*
X014821Y000963D01*
X014859Y000924D01*
X014899Y000888D01*
X014942Y000855D01*
X014987Y000825D01*
X015034Y000798D01*
X014610Y001504D02*
X014612Y001558D01*
X014617Y001611D01*
X014626Y001665D01*
X014639Y001717D01*
X014655Y001768D01*
X014675Y001819D01*
X014697Y001868D01*
X014723Y001915D01*
X014753Y001960D01*
X014785Y002003D01*
X014820Y002044D01*
X014858Y002083D01*
X014898Y002119D01*
M02*
