%
M48
M72
T01C0.0236
T02C0.0315
T03C0.0320
T04C0.0400
T05C0.0433
T06C0.0748
%
T01
X15142Y10811
X12386Y14059
X9237Y11205
X4118Y11402
X2150Y9237
T02
X8323Y5390
X3639Y15794
X3329Y16414
X2639Y16414
X2969Y15794
X2269Y15794
T03
X8319Y1394
X8319Y2394
X8319Y3394
X8319Y4394
X8319Y5394
X8319Y6394
X8319Y7394
X8319Y8394
X8319Y9394
X8319Y10394
X8319Y11394
X8319Y12394
X8319Y13394
X8319Y14394
X11319Y14394
X11319Y13394
X11319Y12394
X11319Y11394
X11319Y10394
X11319Y9394
X11319Y8394
X11319Y7394
X11319Y6394
X11319Y5394
X11319Y4394
X11319Y3394
X11319Y2394
X11319Y1394
X15410Y1004
X15410Y2004
X17969Y11012
X17969Y12012
X11429Y17878
X11429Y18878
T04
X19181Y1181
X19181Y2181
X19181Y3181
X19181Y4181
X19181Y6181
X19181Y7181
X19181Y8181
X19181Y9181
X7071Y1363
X6071Y1363
X5071Y1363
X4071Y1363
X3071Y1363
X681Y1181
X681Y2181
X681Y3181
X681Y4181
X681Y6181
X681Y7181
X681Y8181
X681Y9181
X681Y11181
X681Y12181
X681Y13181
X681Y14181
X6181Y16681
X6181Y17681
X6181Y18681
T05
X5193Y2937
X6193Y2937
X6311Y5449
X6311Y6449
X6311Y7449
X13174Y3945
X15536Y5193
X15536Y6193
X14835Y7016
X14835Y10016
X13174Y13067
X13174Y14067
X12461Y15929
X11205Y15823
X11205Y16823
X9107Y17107
X9107Y16107
X8949Y19079
X7949Y19079
X14122Y18422
X16122Y18422
X17248Y18406
X19248Y18406
X18473Y16248
X17111Y16248
X15461Y15929
X17111Y13248
X18473Y13248
X13174Y945
T06
X4406Y17894
X1532Y17894
M30
