G75*
G70*
%OFA0B0*%
%FSLAX24Y24*%
%IPPOS*%
%LPD*%
%AMOC8*
5,1,8,0,0,1.08239X$1,22.5*
%
%ADD10C,0.0000*%
%ADD11R,0.0740X0.0740*%
%ADD12C,0.0740*%
%ADD13C,0.0515*%
%ADD14C,0.1122*%
%ADD15C,0.0600*%
%ADD16R,0.0650X0.0650*%
%ADD17C,0.0650*%
%ADD18C,0.0520*%
%ADD19OC8,0.0650*%
%ADD20R,0.0650X0.0650*%
%ADD21R,0.0520X0.0520*%
%ADD22OC8,0.0520*%
%ADD23C,0.0356*%
%ADD24C,0.0160*%
%ADD25R,0.0472X0.0472*%
D10*
X000181Y000181D02*
X019866Y000181D01*
X019866Y019866D01*
X000181Y019866D01*
X000181Y000181D01*
D11*
X000681Y004181D03*
X000681Y009181D03*
X000681Y014181D03*
X007071Y001363D03*
X019181Y004181D03*
X019181Y009181D03*
D12*
X019181Y008181D03*
X019181Y007181D03*
X019181Y006181D03*
X019181Y003181D03*
X019181Y002181D03*
X019181Y001181D03*
X006071Y001363D03*
X005071Y001363D03*
X004071Y001363D03*
X003071Y001363D03*
X000681Y001181D03*
X000681Y002181D03*
X000681Y003181D03*
X000681Y006181D03*
X000681Y007181D03*
X000681Y008181D03*
X000681Y011181D03*
X000681Y012181D03*
X000681Y013181D03*
D13*
X002269Y015794D03*
X002969Y015794D03*
X002639Y016414D03*
X003329Y016414D03*
X003639Y015794D03*
D14*
X004406Y017894D03*
X001532Y017894D03*
D15*
X005881Y017681D02*
X006481Y017681D01*
X006481Y016681D02*
X005881Y016681D01*
X005881Y018681D02*
X006481Y018681D01*
D16*
X009107Y017107D03*
X015536Y006193D03*
D17*
X015536Y005193D03*
X009107Y016107D03*
D18*
X008579Y014394D02*
X008059Y014394D01*
X008059Y013394D02*
X008579Y013394D01*
X008579Y012394D02*
X008059Y012394D01*
X008059Y011394D02*
X008579Y011394D01*
X008579Y010394D02*
X008059Y010394D01*
X008059Y009394D02*
X008579Y009394D01*
X008579Y008394D02*
X008059Y008394D01*
X008059Y007394D02*
X008579Y007394D01*
X008579Y006394D02*
X008059Y006394D01*
X008059Y005394D02*
X008579Y005394D01*
X008579Y004394D02*
X008059Y004394D01*
X008059Y003394D02*
X008579Y003394D01*
X008579Y002394D02*
X008059Y002394D01*
X008059Y001394D02*
X008579Y001394D01*
X011059Y001394D02*
X011579Y001394D01*
X011579Y002394D02*
X011059Y002394D01*
X011059Y003394D02*
X011579Y003394D01*
X011579Y004394D02*
X011059Y004394D01*
X011059Y005394D02*
X011579Y005394D01*
X011579Y006394D02*
X011059Y006394D01*
X011059Y007394D02*
X011579Y007394D01*
X011579Y008394D02*
X011059Y008394D01*
X011059Y009394D02*
X011579Y009394D01*
X011579Y010394D02*
X011059Y010394D01*
X011059Y011394D02*
X011579Y011394D01*
X011579Y012394D02*
X011059Y012394D01*
X011059Y013394D02*
X011579Y013394D01*
X011579Y014394D02*
X011059Y014394D01*
D19*
X011205Y015823D03*
X011205Y016823D03*
X012461Y015929D03*
X013174Y014067D03*
X013174Y013067D03*
X015461Y015929D03*
X017111Y016248D03*
X018473Y016248D03*
X018473Y013248D03*
X017111Y013248D03*
X014835Y010016D03*
X014835Y007016D03*
X013174Y003945D03*
X013174Y000945D03*
X006193Y002937D03*
X005193Y002937D03*
X007949Y019079D03*
X008949Y019079D03*
D20*
X014122Y018422D03*
X016122Y018422D03*
X017248Y018406D03*
X019248Y018406D03*
X006311Y007449D03*
X006311Y006449D03*
X006311Y005449D03*
D21*
X015410Y001004D03*
X017969Y011012D03*
X011429Y017878D03*
D22*
X011429Y018878D03*
X017969Y012012D03*
X015410Y002004D03*
D23*
X015142Y010811D03*
X012386Y014059D03*
X009237Y011205D03*
X004118Y011402D03*
X002150Y009237D03*
D24*
X003071Y008315D01*
X003071Y001363D01*
X004071Y001363D02*
X004118Y001410D01*
X004118Y011402D01*
X004118Y011894D02*
X000772Y015240D01*
X000772Y018981D01*
X001264Y019473D01*
X005390Y019473D01*
X006181Y018681D01*
X006177Y018685D01*
X006181Y018681D02*
X006185Y018685D01*
X006874Y018685D01*
X007268Y019079D01*
X007949Y019079D01*
X008709Y017504D02*
X006359Y017504D01*
X006181Y017681D01*
X005209Y016414D02*
X005693Y015929D01*
X008449Y015929D01*
X010418Y013961D01*
X010418Y008843D01*
X010866Y008394D01*
X011319Y008394D01*
X011319Y007394D02*
X011079Y007394D01*
X010024Y008449D01*
X010024Y013764D01*
X008449Y015339D01*
X003424Y015339D01*
X002969Y015794D01*
X003329Y016414D02*
X005209Y016414D01*
X008709Y017504D02*
X009107Y017107D01*
X009390Y016823D01*
X011205Y016823D01*
X011492Y016823D01*
X011992Y016323D01*
X011992Y015067D01*
X011319Y014394D01*
X012386Y014067D02*
X012386Y014059D01*
X012386Y010461D01*
X011319Y009394D01*
X009630Y011402D02*
X009138Y011894D01*
X004118Y011894D01*
X006311Y007449D02*
X007264Y007449D01*
X008319Y006394D01*
X008323Y005390D02*
X006311Y005449D01*
X006193Y002937D02*
X006193Y001512D01*
X006071Y001363D01*
X005193Y001485D02*
X005071Y001363D01*
X005193Y001485D02*
X005193Y002937D01*
X007071Y001363D02*
X007071Y001166D01*
X007662Y000575D01*
X008646Y000575D01*
X009237Y001166D01*
X009237Y011205D01*
X009630Y011402D02*
X009630Y002150D01*
X010386Y001394D01*
X011319Y001394D01*
X011319Y002394D02*
X013418Y002394D01*
X013961Y002937D01*
X013961Y006142D01*
X014835Y007016D01*
X016181Y007016D01*
X016717Y006481D01*
X016717Y005646D01*
X019181Y003181D01*
X018055Y008055D02*
X013961Y008055D01*
X013174Y007268D01*
X013174Y003945D01*
X018055Y008055D02*
X019181Y009181D01*
X017969Y011012D02*
X016981Y010024D01*
X015929Y010024D01*
X015922Y010016D01*
X014835Y010016D01*
X015142Y010811D02*
X015142Y013961D01*
X017111Y015929D01*
X017111Y016248D01*
X016122Y017237D01*
X016122Y018422D01*
X017248Y018406D02*
X018473Y017181D01*
X018473Y016248D01*
X012461Y015929D02*
X012505Y017386D01*
X011992Y017898D01*
X011449Y017898D01*
X011429Y017878D01*
D25*
X008323Y005390D03*
M02*
